<svg id="svg" version="1.1" xmlns="http://www.w3.org/2000/svg" xmlns:xlink="http://www.w3.org/1999/xlink" width="400" height="400" viewBox="0, 0, 400,400"><g id="svgg"><path id="path0" d="M191.556 42.599 C 190.982 42.911,189.286 43.363,187.788 43.602 C 186.289 43.841,184.911 44.131,184.725 44.246 C 184.539 44.362,180.973 44.624,176.801 44.831 C 169.241 45.204,169.210 45.210,167.474 46.433 C 165.911 47.535,165.268 47.703,161.167 48.079 C 158.655 48.310,156.330 48.725,156.000 49.001 C 154.734 50.061,152.891 50.728,150.000 51.173 C 147.745 51.519,146.647 51.917,145.579 52.772 C 144.732 53.450,143.239 54.101,141.882 54.383 C 140.344 54.702,139.242 55.220,138.482 55.979 C 137.650 56.812,136.794 57.178,135.179 57.393 C 133.524 57.613,132.746 57.956,131.945 58.816 C 131.193 59.625,130.211 60.090,128.515 60.441 C 126.648 60.826,126.010 61.157,125.536 61.982 C 124.980 62.951,122.696 64.000,121.141 64.000 C 120.830 64.000,120.376 64.528,120.132 65.173 C 119.790 66.081,119.357 66.409,118.222 66.622 C 117.315 66.792,116.512 67.268,116.119 67.868 C 115.437 68.909,113.247 70.000,111.839 70.000 C 111.251 70.000,110.834 70.375,110.531 71.176 C 110.242 71.942,109.581 72.564,108.638 72.958 C 107.841 73.291,107.079 73.849,106.946 74.197 C 106.812 74.545,106.175 75.103,105.530 75.436 C 104.885 75.770,103.641 76.759,102.766 77.634 C 101.891 78.509,100.622 79.336,99.946 79.471 C 99.069 79.646,98.605 80.039,98.324 80.845 C 98.074 81.564,97.472 82.141,96.666 82.436 C 95.969 82.691,95.037 83.462,94.594 84.150 C 94.150 84.837,93.399 85.456,92.925 85.524 C 92.393 85.600,91.908 86.090,91.661 86.798 C 91.440 87.431,90.741 88.217,90.108 88.544 C 89.474 88.872,88.740 89.613,88.477 90.191 C 88.213 90.769,87.469 91.427,86.823 91.652 C 86.092 91.907,85.601 92.388,85.524 92.925 C 85.456 93.399,84.837 94.150,84.150 94.594 C 83.462 95.037,82.691 95.969,82.436 96.666 C 82.141 97.472,81.564 98.074,80.845 98.324 C 80.045 98.603,79.646 99.070,79.475 99.927 C 79.342 100.591,78.426 101.966,77.439 102.981 C 76.453 103.996,75.538 105.165,75.407 105.578 C 75.276 105.991,74.712 106.628,74.153 106.994 C 73.595 107.360,72.960 108.169,72.743 108.792 C 72.511 109.456,71.862 110.126,71.174 110.411 C 70.297 110.774,70.000 111.163,69.999 111.949 C 69.997 113.164,68.671 115.521,67.802 115.855 C 67.476 115.980,67.012 116.829,66.771 117.741 C 66.530 118.654,65.836 119.940,65.229 120.600 C 64.622 121.260,63.888 122.430,63.597 123.200 C 62.979 124.837,62.070 126.000,61.409 126.000 C 61.151 126.000,60.736 127.120,60.484 128.500 C 60.129 130.445,59.769 131.222,58.860 132.000 C 57.946 132.783,57.629 133.473,57.398 135.179 C 57.176 136.819,56.812 137.649,55.928 138.534 C 55.081 139.380,54.642 140.337,54.355 141.954 C 53.759 145.323,53.277 146.589,52.248 147.484 C 51.533 148.105,51.250 148.891,51.035 150.847 C 50.661 154.253,50.011 156.347,49.141 156.957 C 48.571 157.356,48.334 158.428,47.983 162.206 C 47.545 166.910,46.965 168.844,45.795 169.499 C 45.313 169.769,45.107 171.359,44.783 177.327 C 44.349 185.320,44.037 187.599,42.992 190.420 C 41.955 193.218,41.621 211.450,42.579 212.912 C 43.739 214.682,44.420 219.092,44.737 226.891 C 45.014 233.666,45.122 234.468,45.871 235.291 C 47.333 236.895,47.664 237.993,47.967 242.241 C 48.207 245.607,48.421 246.576,49.082 247.302 C 50.417 248.768,50.817 249.856,51.068 252.702 C 51.268 254.981,51.481 255.565,52.435 256.462 C 53.057 257.046,53.648 257.946,53.749 258.462 C 54.732 263.501,54.946 264.165,55.848 264.954 C 56.531 265.552,56.983 266.613,57.388 268.573 C 57.718 270.173,58.223 271.493,58.580 271.693 C 59.481 272.197,60.400 274.169,60.400 275.599 C 60.400 276.555,60.672 276.993,61.595 277.519 C 62.787 278.199,64.000 280.468,64.000 282.018 C 64.000 282.500,64.389 282.968,64.976 283.191 C 66.037 283.594,66.800 284.721,66.800 285.885 C 66.800 286.290,67.335 287.092,67.989 287.666 C 68.720 288.307,69.373 289.435,69.682 290.592 C 70.052 291.972,70.485 292.630,71.302 293.053 C 71.961 293.393,72.679 294.280,73.053 295.215 C 73.401 296.087,73.817 296.800,73.976 296.800 C 74.135 296.800,74.854 297.708,75.573 298.818 C 76.292 299.927,77.400 301.220,78.035 301.689 C 78.740 302.210,79.288 303.062,79.440 303.872 C 79.608 304.770,79.914 305.200,80.383 305.200 C 81.245 305.200,82.400 306.432,82.400 307.352 C 82.400 307.754,82.886 308.211,83.562 308.447 C 84.270 308.694,84.922 309.328,85.229 310.070 C 85.525 310.784,86.187 311.446,86.829 311.670 C 87.471 311.894,88.133 312.556,88.429 313.270 C 88.726 313.988,89.387 314.646,90.038 314.873 C 90.704 315.105,91.351 315.762,91.669 316.529 C 92.122 317.623,92.223 315.721,92.398 302.864 L 92.600 287.928 93.544 287.164 C 95.050 285.946,133.579 285.979,134.800 287.200 C 135.585 287.985,135.600 288.533,135.600 316.567 C 135.600 345.341,135.637 346.400,136.634 346.400 C 136.935 346.400,137.491 346.895,137.870 347.500 C 138.248 348.105,138.597 348.660,138.646 348.733 C 138.694 348.807,139.967 349.021,141.475 349.211 C 142.984 349.400,144.527 349.674,144.905 349.819 C 145.551 350.067,145.598 346.902,145.696 295.606 L 145.800 241.129 146.744 240.365 C 148.250 239.146,186.779 239.179,188.000 240.400 C 188.792 241.192,188.800 241.760,188.840 300.100 C 188.862 332.495,189.005 359.450,189.157 360.000 C 189.431 360.985,189.504 361.002,194.114 361.113 L 198.793 361.225 198.897 269.827 C 198.995 182.696,199.033 178.395,199.714 177.714 C 200.818 176.611,239.982 176.611,241.086 177.714 C 241.766 178.395,241.805 182.580,241.904 266.929 L 242.007 355.429 244.406 355.199 C 246.240 355.024,246.947 354.769,247.404 354.116 C 248.105 353.115,249.710 352.549,252.900 352.176 L 255.200 351.908 255.200 229.354 C 255.200 107.333,255.203 106.797,256.000 106.000 C 257.221 104.779,295.750 104.746,297.256 105.965 L 298.200 106.729 298.400 217.355 L 298.600 327.981 300.932 325.990 C 302.215 324.896,303.608 324.000,304.027 324.000 C 304.514 324.000,304.992 323.514,305.352 322.654 C 305.720 321.772,306.332 321.163,307.125 320.886 C 307.928 320.606,308.380 320.150,308.468 319.532 C 308.549 318.957,309.078 318.370,309.849 318.000 C 310.535 317.670,311.378 316.911,311.722 316.314 C 312.065 315.717,312.815 315.111,313.387 314.967 C 314.066 314.797,314.625 314.236,314.993 313.354 C 315.304 312.610,315.973 311.810,316.479 311.575 C 316.986 311.341,317.670 310.576,318.000 309.875 C 318.368 309.092,318.950 308.550,319.507 308.471 C 320.091 308.388,320.609 307.874,320.964 307.025 C 321.326 306.159,321.939 305.560,322.757 305.275 C 323.602 304.980,324.000 304.579,324.000 304.022 C 324.000 303.571,324.605 302.527,325.345 301.701 C 326.086 300.876,326.982 299.631,327.338 298.935 C 327.693 298.240,328.498 297.250,329.126 296.735 C 329.754 296.221,330.489 295.238,330.761 294.552 C 331.032 293.865,331.666 293.116,332.170 292.886 C 332.718 292.637,333.184 291.980,333.330 291.250 C 333.464 290.580,334.184 289.349,334.931 288.516 C 335.677 287.682,336.514 286.301,336.792 285.447 C 337.146 284.359,337.629 283.769,338.407 283.475 C 339.351 283.119,339.555 282.762,339.779 281.077 C 339.967 279.653,340.363 278.775,341.189 277.950 C 341.820 277.319,342.462 276.217,342.616 275.501 C 342.982 273.804,343.912 271.952,344.776 271.200 C 345.156 270.870,345.681 269.618,345.945 268.418 C 346.425 266.228,347.315 264.800,348.198 264.800 C 348.470 264.800,348.883 263.616,349.169 262.019 C 349.474 260.314,350.100 258.572,350.788 257.519 C 351.593 256.284,351.985 255.057,352.179 253.165 C 352.350 251.498,352.771 250.040,353.325 249.197 C 355.030 246.600,355.188 246.179,355.201 244.200 C 355.220 241.204,356.263 236.846,357.348 235.231 C 358.240 233.902,358.325 233.310,358.548 226.912 C 358.764 220.687,358.893 219.743,359.892 217.112 L 360.997 214.200 361.110 202.066 C 361.219 190.337,361.195 189.886,360.384 188.573 C 359.244 186.730,358.408 180.110,358.403 172.909 C 358.400 167.313,358.384 167.208,357.420 166.576 C 356.187 165.769,355.698 164.248,355.368 160.200 C 355.148 157.494,354.903 156.691,353.785 155.000 C 352.749 153.432,352.378 152.331,352.069 149.903 C 351.771 147.555,351.433 146.517,350.673 145.614 C 349.779 144.551,348.800 141.466,348.800 139.709 C 348.800 139.351,348.253 138.595,347.585 138.029 C 346.606 137.200,346.323 136.587,346.126 134.869 C 345.928 133.142,345.628 132.498,344.542 131.469 C 343.607 130.583,343.053 129.565,342.706 128.097 C 342.372 126.683,341.966 125.916,341.468 125.758 C 340.579 125.476,339.600 123.298,339.600 121.603 C 339.600 120.696,339.363 120.290,338.684 120.032 C 337.506 119.584,337.017 118.951,336.421 117.100 C 336.155 116.275,335.778 115.600,335.583 115.600 C 335.011 115.600,333.200 112.691,333.200 111.771 C 333.200 111.253,332.802 110.747,332.165 110.457 C 331.544 110.174,330.879 109.347,330.504 108.393 C 330.160 107.517,329.727 106.800,329.542 106.800 C 328.957 106.800,326.800 103.518,326.800 102.628 C 326.800 102.047,326.416 101.630,325.597 101.321 C 324.751 101.002,324.325 100.523,324.162 99.708 C 324.002 98.911,323.573 98.414,322.788 98.118 C 322.074 97.848,321.430 97.168,321.067 96.298 C 320.695 95.409,320.128 94.819,319.494 94.659 C 318.890 94.508,318.300 93.925,317.988 93.171 C 317.706 92.490,317.044 91.769,316.518 91.569 C 315.990 91.368,315.299 90.576,314.975 89.803 C 314.580 88.855,314.127 88.400,313.581 88.400 C 313.086 88.400,312.462 87.874,311.972 87.043 C 311.532 86.296,310.649 85.469,310.012 85.205 C 309.325 84.921,308.686 84.250,308.447 83.562 C 308.192 82.830,307.761 82.400,307.283 82.400 C 306.394 82.400,305.200 81.207,305.200 80.319 C 305.200 79.954,304.717 79.603,304.023 79.465 C 303.376 79.335,302.278 78.605,301.584 77.842 C 300.890 77.080,299.638 76.182,298.802 75.848 C 297.967 75.513,296.892 74.691,296.414 74.020 C 295.936 73.349,295.192 72.800,294.759 72.800 C 294.288 72.800,293.649 72.250,293.163 71.427 C 292.638 70.538,291.937 69.962,291.176 69.795 C 290.529 69.653,289.263 68.921,288.362 68.168 C 287.461 67.416,286.406 66.800,286.016 66.800 C 285.134 66.800,283.200 65.316,283.200 64.640 C 283.200 64.363,282.267 63.922,281.118 63.657 C 278.963 63.159,277.600 62.264,277.600 61.346 C 277.600 60.815,277.169 60.668,274.238 60.193 C 273.220 60.029,272.317 59.532,271.649 58.770 C 271.084 58.127,270.257 57.599,269.811 57.598 C 267.898 57.593,265.990 56.741,265.420 55.638 C 264.883 54.601,264.602 54.492,261.797 54.238 C 258.338 53.925,257.059 53.455,256.235 52.197 C 255.771 51.490,255.121 51.262,252.929 51.042 C 249.054 50.651,247.289 50.110,247.008 49.226 C 246.748 48.405,245.855 48.232,239.415 47.756 C 236.120 47.513,235.731 47.393,234.615 46.273 L 233.400 45.055 226.600 44.751 C 218.000 44.365,216.709 44.198,213.003 42.988 C 209.298 41.779,193.590 41.494,191.556 42.599 " stroke="none" fill="#04b324" fill-rule="evenodd"></path><path id="path1" d="M168.400 11.156 C 167.640 11.365,167.370 11.739,167.275 12.716 L 167.149 14.000 160.148 14.000 C 152.434 14.000,151.600 14.196,151.600 16.014 L 151.600 17.200 147.000 17.200 L 142.400 17.200 142.400 18.787 L 142.400 20.375 137.700 20.487 L 133.000 20.600 132.877 22.087 L 132.753 23.574 128.277 23.687 L 123.800 23.800 123.679 25.041 C 123.559 26.274,123.541 26.283,120.479 26.641 L 117.400 27.000 117.275 28.300 L 117.149 29.600 114.675 29.606 C 111.739 29.613,111.388 29.795,111.018 31.500 C 110.737 32.797,110.731 32.800,108.248 32.800 C 105.483 32.800,104.800 33.212,104.800 34.880 C 104.800 35.920,104.686 36.000,103.200 36.000 L 101.600 36.000 101.600 37.600 L 101.600 39.200 98.643 39.200 C 95.486 39.200,95.200 39.385,95.200 41.433 C 95.200 42.272,95.014 42.400,93.800 42.400 C 92.467 42.400,92.400 42.467,92.400 43.800 L 92.400 45.200 90.100 45.205 C 86.560 45.214,86.000 45.462,86.000 47.023 C 86.000 48.270,85.907 48.359,84.500 48.476 C 83.086 48.593,82.993 48.685,82.877 50.077 C 82.762 51.465,82.665 51.562,81.277 51.677 C 79.885 51.793,79.793 51.886,79.676 53.300 L 79.552 54.800 77.204 54.800 C 74.606 54.800,73.600 55.415,73.600 57.004 C 73.600 57.810,73.376 57.970,72.100 58.076 C 70.740 58.188,70.589 58.318,70.477 59.466 C 70.371 60.560,70.154 60.778,68.877 61.078 C 67.594 61.380,67.384 61.594,67.275 62.713 C 67.167 63.818,66.995 64.000,66.055 64.000 C 64.665 64.000,64.000 64.665,64.000 66.055 C 64.000 66.995,63.818 67.167,62.713 67.275 C 61.594 67.384,61.380 67.594,61.078 68.877 C 60.778 70.154,60.560 70.371,59.466 70.477 C 58.318 70.589,58.188 70.740,58.076 72.100 C 57.970 73.376,57.810 73.600,57.004 73.600 C 55.415 73.600,54.800 74.606,54.800 77.204 L 54.800 79.552 53.300 79.676 C 51.886 79.793,51.793 79.885,51.677 81.277 C 51.562 82.665,51.465 82.762,50.077 82.877 C 48.685 82.993,48.593 83.086,48.476 84.500 C 48.359 85.907,48.270 86.000,47.023 86.000 C 45.462 86.000,45.214 86.560,45.205 90.100 L 45.200 92.400 43.800 92.400 C 42.467 92.400,42.400 92.467,42.400 93.800 C 42.400 95.014,42.272 95.200,41.433 95.200 C 39.385 95.200,39.200 95.486,39.200 98.643 L 39.200 101.600 37.600 101.600 L 36.000 101.600 36.000 103.200 C 36.000 104.686,35.920 104.800,34.880 104.800 C 33.212 104.800,32.800 105.483,32.800 108.248 C 32.800 110.731,32.797 110.737,31.500 111.018 C 29.795 111.388,29.613 111.739,29.606 114.675 L 29.600 117.149 28.300 117.275 L 27.000 117.400 26.641 120.479 C 26.283 123.541,26.274 123.559,25.041 123.679 L 23.800 123.800 23.687 128.277 L 23.574 132.753 22.087 132.877 L 20.600 133.000 20.487 137.700 L 20.375 142.400 18.787 142.400 L 17.200 142.400 17.200 147.000 L 17.200 151.600 16.014 151.600 C 14.196 151.600,14.000 152.434,14.000 160.148 L 14.000 167.149 12.716 167.275 C 10.828 167.459,10.880 166.493,10.880 201.600 C 10.880 236.707,10.828 235.741,12.716 235.925 L 14.000 236.051 14.000 243.197 C 14.000 250.950,14.172 251.600,16.229 251.600 L 17.200 251.600 17.200 256.200 L 17.200 260.800 18.800 260.800 L 20.400 260.800 20.400 265.357 C 20.400 270.256,20.464 270.400,22.633 270.400 C 23.593 270.400,23.600 270.429,23.600 274.520 C 23.600 278.868,23.863 279.600,25.428 279.600 C 26.213 279.600,26.324 279.878,26.582 282.497 C 26.877 285.495,27.173 285.983,28.700 285.994 C 29.531 286.000,29.600 286.181,29.600 288.367 C 29.600 291.575,29.816 292.000,31.443 292.000 L 32.800 292.000 32.800 294.426 C 32.800 297.482,33.265 298.400,34.814 298.400 C 35.931 298.400,36.000 298.493,36.000 300.000 L 36.000 301.600 37.600 301.600 L 39.200 301.600 39.200 304.557 C 39.200 307.714,39.385 308.000,41.433 308.000 C 42.272 308.000,42.400 308.186,42.400 309.400 C 42.400 310.733,42.467 310.800,43.800 310.800 L 45.200 310.800 45.200 313.226 C 45.200 316.267,45.667 317.200,47.190 317.200 C 48.244 317.200,48.363 317.339,48.476 318.700 C 48.593 320.114,48.685 320.207,50.077 320.323 C 51.465 320.438,51.562 320.535,51.677 321.923 C 51.793 323.315,51.886 323.407,53.300 323.524 L 54.800 323.648 54.800 325.824 C 54.800 328.187,55.689 329.600,57.176 329.600 C 57.784 329.600,57.979 329.925,58.076 331.100 C 58.188 332.460,58.318 332.611,59.466 332.723 C 60.560 332.829,60.778 333.046,61.078 334.323 C 61.380 335.606,61.594 335.816,62.713 335.925 C 63.838 336.035,64.000 336.197,64.000 337.211 C 64.000 338.438,64.900 339.200,66.348 339.200 C 66.960 339.200,67.179 339.508,67.275 340.500 C 67.389 341.683,67.533 341.811,68.877 341.923 C 70.265 342.038,70.362 342.135,70.477 343.523 C 70.593 344.910,70.690 345.007,72.076 345.123 C 73.340 345.228,73.569 345.399,73.676 346.313 C 73.833 347.669,75.213 348.386,77.676 348.394 L 79.552 348.400 79.676 349.900 C 79.793 351.314,79.885 351.407,81.277 351.523 C 82.665 351.638,82.762 351.735,82.877 353.123 C 82.993 354.515,83.086 354.607,84.500 354.724 C 85.907 354.841,86.000 354.930,86.000 356.177 C 86.000 357.738,86.560 357.986,90.100 357.995 L 92.400 358.000 92.400 359.400 C 92.400 360.733,92.467 360.800,93.800 360.800 C 95.014 360.800,95.200 360.928,95.200 361.767 C 95.200 363.815,95.486 364.000,98.643 364.000 L 101.600 364.000 101.600 365.600 L 101.600 367.200 103.200 367.200 C 104.714 367.200,104.800 367.265,104.800 368.410 C 104.800 369.867,105.870 370.400,108.794 370.400 C 110.661 370.400,110.747 370.451,111.018 371.700 C 111.388 373.405,111.739 373.587,114.675 373.594 L 117.149 373.600 117.275 374.900 L 117.400 376.200 120.500 376.317 C 123.589 376.433,123.600 376.438,123.600 377.537 C 123.600 379.354,124.204 379.600,128.656 379.600 L 132.752 379.600 132.876 381.100 L 133.000 382.600 137.677 382.712 L 142.353 382.825 142.477 384.312 L 142.600 385.800 147.100 385.913 L 151.600 386.026 151.600 387.223 C 151.600 388.966,152.643 389.200,160.401 389.200 L 167.149 389.200 167.275 390.500 L 167.400 391.800 201.375 391.902 C 237.516 392.011,235.980 392.090,235.994 390.125 C 236.000 389.261,236.094 389.248,243.415 389.125 C 251.337 388.991,251.580 388.926,251.594 386.913 C 251.600 386.057,251.756 386.022,256.100 385.913 L 260.600 385.800 260.723 384.312 L 260.847 382.825 265.523 382.712 L 270.200 382.600 270.324 381.100 L 270.448 379.600 274.544 379.600 C 279.004 379.600,279.600 379.355,279.600 377.520 L 279.600 376.400 282.557 376.400 C 285.652 376.400,286.000 376.194,286.000 374.367 C 286.000 373.697,286.300 373.600,288.367 373.600 C 291.575 373.600,292.000 373.384,292.000 371.757 L 292.000 370.400 294.174 370.400 C 297.311 370.400,298.400 369.893,298.400 368.434 C 298.400 367.353,298.532 367.237,299.900 367.124 C 301.315 367.007,301.407 366.916,301.523 365.516 L 301.646 364.033 304.723 363.916 L 307.800 363.800 307.924 362.300 C 308.042 360.881,308.123 360.800,309.424 360.800 C 310.730 360.800,310.800 360.729,310.800 359.400 L 310.800 358.000 313.520 358.000 C 316.519 358.000,317.200 357.619,317.200 355.944 C 317.200 354.967,317.362 354.835,318.700 354.724 C 320.114 354.607,320.207 354.515,320.323 353.123 C 320.438 351.735,320.535 351.638,321.923 351.523 C 323.315 351.407,323.407 351.314,323.524 349.900 C 323.647 348.414,323.665 348.400,325.398 348.400 C 327.998 348.400,329.176 347.822,329.459 346.407 C 329.668 345.360,329.873 345.200,331.007 345.200 C 332.388 345.200,332.800 344.686,332.800 342.967 C 332.800 342.134,332.988 342.000,334.157 342.000 C 335.544 342.000,336.000 341.497,336.000 339.967 C 336.000 339.422,336.280 339.200,336.971 339.200 C 338.214 339.200,339.200 338.214,339.200 336.971 C 339.200 336.280,339.422 336.000,339.967 336.000 C 341.497 336.000,342.000 335.544,342.000 334.157 C 342.000 332.988,342.134 332.800,342.967 332.800 C 344.686 332.800,345.200 332.388,345.200 331.007 C 345.200 329.873,345.360 329.668,346.407 329.459 C 347.822 329.176,348.400 327.998,348.400 325.398 C 348.400 323.665,348.414 323.647,349.900 323.524 C 351.314 323.407,351.407 323.315,351.523 321.923 C 351.638 320.535,351.735 320.438,353.123 320.323 C 354.515 320.207,354.607 320.114,354.724 318.700 C 354.835 317.362,354.967 317.200,355.944 317.200 C 357.619 317.200,358.000 316.519,358.000 313.520 L 358.000 310.800 359.400 310.800 C 360.729 310.800,360.800 310.730,360.800 309.424 C 360.800 308.123,360.881 308.042,362.300 307.924 L 363.800 307.800 363.916 304.723 L 364.033 301.646 365.516 301.523 C 366.916 301.407,367.007 301.315,367.124 299.900 C 367.237 298.532,367.353 298.400,368.434 298.400 C 369.893 298.400,370.400 297.311,370.400 294.174 L 370.400 292.000 371.757 292.000 C 373.384 292.000,373.600 291.575,373.600 288.367 C 373.600 286.300,373.697 286.000,374.367 286.000 C 376.194 286.000,376.400 285.652,376.400 282.557 L 376.400 279.600 377.520 279.600 C 379.355 279.600,379.600 279.004,379.600 274.544 L 379.600 270.448 381.100 270.324 L 382.600 270.200 382.712 265.523 L 382.825 260.847 384.312 260.723 L 385.800 260.600 385.913 256.100 C 386.022 251.756,386.057 251.600,386.913 251.594 C 388.926 251.580,388.991 251.337,389.125 243.415 C 389.248 236.094,389.261 236.000,390.125 235.994 C 392.090 235.980,392.011 237.516,391.902 201.375 L 391.800 167.400 390.500 167.275 L 389.200 167.149 389.200 160.401 C 389.200 152.643,388.966 151.600,387.223 151.600 L 386.026 151.600 385.913 147.100 L 385.800 142.600 384.312 142.477 L 382.825 142.353 382.712 137.677 L 382.600 133.000 381.100 132.876 L 379.600 132.752 379.600 128.656 C 379.600 124.204,379.354 123.600,377.537 123.600 C 376.438 123.600,376.433 123.589,376.317 120.500 L 376.200 117.400 374.900 117.275 L 373.600 117.149 373.594 114.675 C 373.587 111.739,373.405 111.388,371.700 111.018 C 370.451 110.747,370.400 110.661,370.400 108.794 C 370.400 105.870,369.867 104.800,368.410 104.800 C 367.265 104.800,367.200 104.714,367.200 103.200 L 367.200 101.600 365.600 101.600 L 364.000 101.600 364.000 98.643 C 364.000 95.486,363.815 95.200,361.767 95.200 C 360.928 95.200,360.800 95.014,360.800 93.800 C 360.800 92.467,360.733 92.400,359.400 92.400 L 358.000 92.400 357.995 90.100 C 357.986 86.560,357.738 86.000,356.177 86.000 C 354.930 86.000,354.841 85.907,354.724 84.500 C 354.607 83.086,354.515 82.993,353.123 82.877 C 351.735 82.762,351.638 82.665,351.523 81.277 C 351.407 79.885,351.314 79.793,349.900 79.676 L 348.400 79.552 348.394 77.676 C 348.386 75.213,347.669 73.833,346.313 73.676 C 345.399 73.569,345.228 73.340,345.123 72.076 C 345.007 70.690,344.910 70.593,343.523 70.477 C 342.135 70.362,342.038 70.265,341.923 68.877 C 341.811 67.533,341.683 67.389,340.500 67.275 C 339.508 67.179,339.200 66.960,339.200 66.348 C 339.200 64.900,338.438 64.000,337.211 64.000 C 336.197 64.000,336.035 63.838,335.925 62.713 C 335.816 61.594,335.606 61.380,334.323 61.078 C 333.046 60.778,332.829 60.560,332.723 59.466 C 332.612 58.325,332.456 58.188,331.140 58.078 C 329.836 57.969,329.654 57.814,329.430 56.617 C 329.134 55.039,328.654 54.800,325.791 54.800 L 323.648 54.800 323.524 53.300 C 323.407 51.886,323.315 51.793,321.923 51.677 C 320.535 51.562,320.438 51.465,320.323 50.077 C 320.207 48.685,320.114 48.593,318.700 48.476 C 317.339 48.363,317.200 48.244,317.200 47.190 C 317.200 45.667,316.267 45.200,313.226 45.200 L 310.800 45.200 310.800 43.800 C 310.800 42.467,310.733 42.400,309.400 42.400 C 308.186 42.400,308.000 42.272,308.000 41.433 C 308.000 39.385,307.714 39.200,304.557 39.200 L 301.600 39.200 301.600 37.600 L 301.600 36.000 300.000 36.000 C 298.493 36.000,298.400 35.931,298.400 34.814 C 298.400 33.265,297.482 32.800,294.426 32.800 L 292.000 32.800 292.000 31.443 C 292.000 29.816,291.575 29.600,288.367 29.600 C 286.181 29.600,286.000 29.531,285.994 28.700 C 285.983 27.173,285.495 26.877,282.497 26.582 C 279.878 26.324,279.600 26.213,279.600 25.428 C 279.600 23.863,278.868 23.600,274.520 23.600 C 270.429 23.600,270.400 23.593,270.400 22.633 C 270.400 20.464,270.256 20.400,265.357 20.400 L 260.800 20.400 260.800 18.800 L 260.800 17.200 256.200 17.200 L 251.600 17.200 251.600 16.229 C 251.600 14.172,250.950 14.000,243.197 14.000 L 236.051 14.000 235.925 12.716 C 235.830 11.739,235.560 11.365,234.800 11.156 C 233.494 10.795,169.706 10.795,168.400 11.156 M227.200 40.384 C 228.190 40.628,229.500 41.191,230.111 41.634 C 230.952 42.244,232.071 42.489,234.711 42.639 C 240.690 42.978,241.530 43.163,243.012 44.464 C 244.251 45.552,244.766 45.706,248.143 45.995 C 252.104 46.335,253.330 46.747,253.979 47.962 C 254.264 48.493,255.037 48.784,256.689 48.983 C 260.588 49.452,262.320 50.018,262.991 51.043 C 263.445 51.735,263.987 52.000,264.950 52.000 C 267.023 52.000,268.770 52.782,269.395 53.990 C 269.892 54.951,270.279 55.128,272.405 55.369 C 274.663 55.624,275.999 56.324,276.450 57.487 C 276.532 57.700,277.668 58.128,278.973 58.437 C 280.907 58.896,281.466 59.221,282.002 60.194 C 282.506 61.112,283.041 61.453,284.311 61.670 C 286.432 62.032,287.484 62.606,287.789 63.567 C 287.934 64.022,288.718 64.551,289.717 64.867 C 290.743 65.192,291.552 65.747,291.790 66.288 C 292.011 66.792,292.689 67.288,293.356 67.434 C 294.942 67.783,296.589 68.824,297.613 70.126 C 298.078 70.717,298.721 71.200,299.043 71.200 C 299.364 71.200,299.982 71.802,300.416 72.537 C 300.965 73.467,301.691 74.020,302.799 74.352 C 303.928 74.691,304.461 75.104,304.629 75.771 C 304.785 76.396,305.244 76.789,305.988 76.938 C 306.704 77.081,307.429 77.676,307.988 78.581 C 308.471 79.362,309.085 80.000,309.354 80.000 C 309.623 80.000,310.463 80.645,311.222 81.434 C 311.980 82.223,313.365 83.320,314.300 83.872 C 315.235 84.424,316.000 85.036,316.000 85.232 C 316.000 85.428,316.811 86.446,317.801 87.494 C 322.249 92.200,326.400 97.156,326.400 97.760 C 326.400 98.123,326.812 98.577,327.316 98.768 C 328.420 99.188,329.063 99.924,329.262 100.997 C 329.343 101.435,329.919 102.038,330.542 102.336 C 331.192 102.648,331.931 103.494,332.277 104.323 C 332.609 105.117,333.483 106.470,334.219 107.330 C 334.955 108.190,335.671 109.413,335.810 110.047 C 335.950 110.681,336.291 111.200,336.570 111.200 C 337.314 111.200,338.295 112.430,338.634 113.789 C 338.798 114.443,339.532 115.544,340.266 116.236 C 341.262 117.176,341.602 117.837,341.606 118.847 C 341.613 120.419,341.822 120.778,343.258 121.691 C 344.003 122.164,344.474 122.978,344.847 124.431 C 345.209 125.844,345.651 126.623,346.244 126.893 C 347.305 127.376,347.846 128.501,348.221 130.999 C 348.418 132.317,348.721 132.959,349.204 133.085 C 350.131 133.328,350.740 134.753,351.053 137.410 C 351.254 139.125,351.583 139.871,352.594 140.912 C 353.680 142.031,353.949 142.713,354.340 145.337 C 354.712 147.843,354.998 148.609,355.827 149.322 C 356.689 150.063,356.944 150.809,357.416 153.965 C 357.807 156.582,358.216 157.979,358.765 158.562 C 359.774 159.637,360.255 161.933,360.603 167.340 C 360.851 171.192,361.016 171.894,362.069 173.588 L 363.255 175.496 363.631 188.448 C 364.300 211.520,363.465 229.964,361.638 232.435 C 361.026 233.262,360.723 234.567,360.437 237.611 C 360.153 240.625,359.783 242.235,359.010 243.815 C 358.387 245.088,357.742 247.450,357.410 249.670 C 356.934 252.856,356.703 253.513,355.804 254.230 C 354.930 254.927,354.687 255.567,354.361 258.034 C 353.865 261.791,353.391 262.985,352.173 263.540 C 351.498 263.847,351.200 264.308,351.200 265.045 C 351.200 266.799,350.312 269.211,349.403 269.927 C 348.848 270.365,348.382 271.433,348.071 272.985 C 347.738 274.643,347.239 275.739,346.430 276.585 C 345.791 277.253,345.066 278.564,344.819 279.498 C 344.380 281.158,344.126 281.521,342.703 282.514 C 342.320 282.781,341.845 283.868,341.649 284.929 C 341.381 286.379,340.933 287.188,339.846 288.183 C 339.051 288.912,338.400 289.857,338.400 290.284 C 338.400 290.711,337.932 291.497,337.360 292.030 C 336.789 292.564,335.907 293.810,335.400 294.800 C 334.894 295.790,334.057 296.979,333.540 297.441 C 333.023 297.904,332.283 298.866,331.897 299.580 C 331.510 300.293,330.850 300.966,330.430 301.076 C 330.011 301.186,329.549 301.748,329.404 302.325 C 329.259 302.902,328.434 304.141,327.570 305.078 C 326.707 306.015,326.000 306.937,326.000 307.126 C 326.000 307.415,323.366 310.431,321.440 312.345 C 320.406 313.373,318.891 314.891,318.295 315.495 C 317.533 316.269,316.269 317.533,315.495 318.295 C 314.891 318.891,313.373 320.406,312.345 321.440 C 309.556 324.245,307.288 326.023,306.242 326.223 C 305.362 326.392,304.825 326.830,304.400 327.725 C 304.001 328.565,303.375 329.108,302.531 329.343 C 301.681 329.581,301.182 330.016,301.020 330.663 C 300.528 332.622,297.351 332.914,296.312 331.095 C 295.900 330.375,295.779 308.392,295.693 218.900 L 295.586 107.600 276.595 107.600 L 257.604 107.600 257.502 230.638 L 257.400 353.676 256.200 354.666 C 253.797 356.647,253.072 356.941,249.298 357.464 C 246.652 357.830,245.199 358.231,244.628 358.752 C 242.612 360.593,240.436 359.679,239.849 356.744 C 239.712 356.060,239.600 315.923,239.600 267.550 L 239.600 179.600 220.400 179.600 L 201.200 179.600 201.200 270.756 C 201.200 360.038,201.184 361.931,200.432 362.856 C 199.678 363.783,190.532 364.142,187.877 363.348 C 186.429 362.915,186.400 361.710,186.400 301.574 L 186.400 242.000 167.413 242.000 L 148.427 242.000 148.313 297.139 C 148.191 356.824,148.331 353.190,146.120 354.030 C 144.535 354.633,141.563 353.820,140.420 352.469 C 139.629 351.536,138.951 351.207,137.400 351.006 C 132.987 350.432,133.200 352.108,133.200 317.903 L 133.200 288.800 114.222 288.800 L 95.245 288.800 95.122 303.700 C 94.991 319.647,94.820 320.893,92.644 321.728 C 92.027 321.965,80.000 310.215,80.000 309.376 C 80.000 309.084,79.475 308.535,78.834 308.157 C 77.679 307.474,76.800 306.102,76.800 304.981 C 76.800 304.662,76.431 304.400,75.980 304.400 C 75.405 304.400,74.939 303.905,74.417 302.739 C 73.930 301.652,73.261 300.905,72.477 300.575 C 71.642 300.224,71.197 299.697,71.007 298.833 C 70.857 298.151,70.406 297.417,70.003 297.202 C 68.975 296.652,67.600 294.300,67.600 293.092 C 67.600 292.333,67.308 291.977,66.439 291.674 C 65.603 291.382,65.201 290.917,65.002 290.011 C 64.850 289.319,64.114 288.141,63.366 287.392 C 62.580 286.606,61.808 285.294,61.538 284.283 C 61.247 283.197,60.756 282.394,60.242 282.167 C 59.105 281.663,58.413 280.127,58.406 278.090 C 58.401 276.679,58.240 276.319,57.484 276.032 C 56.113 275.511,55.629 274.727,55.338 272.560 C 55.132 271.021,54.787 270.342,53.731 269.400 C 52.659 268.443,52.334 267.794,52.133 266.200 C 51.963 264.855,51.525 263.791,50.796 262.950 C 49.808 261.811,48.800 257.765,48.800 254.941 C 48.800 254.597,48.354 253.965,47.810 253.536 C 46.728 252.685,46.200 251.087,45.781 247.400 C 45.588 245.701,45.237 244.708,44.577 244.000 C 43.405 242.742,42.937 240.599,42.576 234.853 C 42.342 231.112,42.118 229.995,41.313 228.556 C 39.830 225.903,39.479 218.849,39.742 197.000 C 39.971 177.876,40.182 175.192,41.608 173.189 C 42.309 172.205,42.526 171.086,42.819 166.947 C 43.233 161.110,43.364 160.549,44.630 159.194 C 45.376 158.395,45.652 157.467,45.966 154.703 C 46.401 150.871,46.814 149.776,47.962 149.412 C 48.562 149.222,48.782 148.640,48.990 146.685 C 49.339 143.417,49.908 141.649,51.058 140.269 C 51.576 139.647,52.001 138.747,52.002 138.269 C 52.007 136.284,52.869 134.323,54.026 133.665 C 54.868 133.186,55.196 132.695,55.197 131.908 C 55.202 130.158,56.355 127.749,57.422 127.263 C 58.178 126.918,58.400 126.511,58.400 125.468 C 58.400 123.481,59.111 121.783,60.184 121.209 C 60.798 120.880,61.281 120.102,61.561 118.990 C 61.820 117.961,62.451 116.892,63.141 116.311 C 63.773 115.779,64.516 114.661,64.791 113.827 C 65.099 112.895,65.736 112.058,66.443 111.655 C 67.228 111.209,67.596 110.681,67.599 110.000 C 67.604 108.752,68.890 106.594,69.974 106.014 C 70.423 105.774,70.902 105.132,71.039 104.587 C 71.176 104.043,71.847 103.127,72.530 102.552 C 73.214 101.977,73.964 101.122,74.198 100.653 C 74.432 100.184,75.100 99.572,75.682 99.293 C 76.328 98.983,76.839 98.332,76.995 97.621 C 77.140 96.963,77.850 95.999,78.626 95.408 C 79.382 94.831,80.000 94.112,80.000 93.811 C 80.000 93.509,80.720 92.646,81.600 91.893 C 82.480 91.140,83.200 90.316,83.200 90.062 C 83.200 89.459,89.459 83.200,90.062 83.200 C 90.316 83.200,91.140 82.480,91.893 81.600 C 92.646 80.720,93.509 80.000,93.811 80.000 C 94.112 80.000,94.831 79.382,95.408 78.626 C 95.999 77.850,96.963 77.140,97.621 76.995 C 98.332 76.839,98.983 76.328,99.293 75.682 C 99.572 75.100,100.184 74.432,100.653 74.198 C 101.122 73.964,101.993 73.194,102.589 72.487 C 103.184 71.779,104.009 71.200,104.422 71.200 C 104.835 71.200,106.085 70.390,107.200 69.400 C 108.411 68.324,109.615 67.600,110.192 67.600 C 110.839 67.600,111.328 67.250,111.678 66.535 C 112.007 65.865,112.791 65.268,113.796 64.923 C 114.673 64.622,116.023 63.769,116.796 63.029 C 117.568 62.288,118.760 61.564,119.445 61.421 C 120.226 61.258,120.857 60.793,121.140 60.172 C 121.674 59.000,123.060 58.400,125.236 58.400 C 126.547 58.400,126.884 58.232,127.191 57.424 C 127.662 56.184,128.729 55.618,131.131 55.334 C 132.681 55.150,133.159 54.897,133.684 53.982 C 134.346 52.829,136.334 52.007,138.469 52.002 C 139.057 52.001,140.047 51.588,140.669 51.084 C 142.316 49.751,143.543 49.313,146.521 48.994 C 148.671 48.763,149.223 48.559,149.426 47.918 C 149.777 46.813,151.666 46.149,155.370 45.828 C 157.865 45.612,158.779 45.352,159.666 44.606 C 160.921 43.550,163.379 42.973,168.314 42.579 C 170.221 42.427,172.283 41.997,173.174 41.567 C 174.735 40.813,178.354 40.140,182.400 39.853 C 187.367 39.501,225.450 39.952,227.200 40.384 " stroke="none" fill="#040404" fill-rule="evenodd"></path><path id="path2" d="M181.400 41.178 C 179.200 41.575,176.590 42.086,175.600 42.314 C 174.610 42.542,172.630 42.844,171.200 42.986 C 167.168 43.386,164.536 43.983,162.275 45.008 C 161.134 45.526,158.703 46.151,156.874 46.397 C 152.911 46.931,152.584 47.035,150.884 48.292 C 149.795 49.097,146.541 49.935,144.281 49.992 C 144.105 49.996,143.565 50.422,143.081 50.938 C 142.513 51.543,141.170 52.127,139.301 52.581 C 137.553 53.006,135.849 53.725,135.008 54.394 C 134.241 55.003,132.756 55.716,131.707 55.978 C 130.658 56.240,129.350 56.873,128.800 57.383 C 128.250 57.894,126.802 58.596,125.581 58.943 C 124.361 59.291,122.940 60.025,122.423 60.576 C 121.905 61.126,120.882 61.775,120.147 62.017 C 119.413 62.260,118.477 62.885,118.066 63.407 C 117.655 63.929,116.618 64.678,115.760 65.072 C 114.902 65.466,113.409 66.376,112.442 67.094 C 111.476 67.812,110.454 68.400,110.171 68.400 C 109.889 68.400,109.240 68.921,108.729 69.557 C 108.218 70.193,106.900 71.164,105.800 71.714 C 104.700 72.264,103.440 73.111,103.001 73.598 C 102.561 74.084,101.706 74.738,101.101 75.051 C 100.495 75.364,100.000 75.881,100.000 76.200 C 100.000 76.519,99.415 77.072,98.700 77.430 C 97.985 77.788,96.811 78.648,96.092 79.340 C 95.373 80.033,94.113 81.163,93.292 81.851 C 91.361 83.471,83.471 91.361,81.851 93.292 C 81.163 94.113,80.033 95.373,79.340 96.092 C 78.648 96.811,77.788 97.985,77.430 98.700 C 77.072 99.415,76.532 100.000,76.229 100.000 C 75.927 100.000,75.302 100.585,74.842 101.300 C 74.382 102.015,73.367 103.410,72.587 104.400 C 71.807 105.390,70.546 106.990,69.784 107.955 C 69.023 108.921,68.400 109.949,68.400 110.241 C 68.400 110.533,67.884 111.363,67.253 112.086 C 66.622 112.809,65.646 114.311,65.084 115.425 C 64.522 116.539,63.771 117.692,63.416 117.987 C 63.060 118.282,62.394 119.396,61.935 120.462 C 61.477 121.528,60.947 122.400,60.759 122.400 C 60.336 122.400,59.012 124.991,58.635 126.555 C 58.482 127.190,57.940 128.270,57.429 128.955 C 56.918 129.640,56.201 131.124,55.834 132.253 C 55.467 133.382,54.813 134.626,54.381 135.017 C 53.949 135.408,53.219 137.004,52.759 138.564 C 52.299 140.124,51.556 142.000,51.108 142.732 C 50.661 143.465,50.063 145.281,49.780 146.767 C 49.497 148.253,48.822 150.121,48.281 150.919 C 47.713 151.756,47.095 153.519,46.821 155.085 C 46.559 156.578,45.825 159.330,45.188 161.200 C 44.551 163.070,43.752 166.580,43.411 169.000 C 43.071 171.420,42.542 174.300,42.236 175.400 C 39.817 184.092,39.654 218.025,41.990 226.400 C 42.389 227.830,42.986 231.357,43.317 234.238 C 43.760 238.105,44.185 240.042,44.938 241.638 C 45.499 242.827,46.152 245.021,46.388 246.512 C 46.646 248.135,47.356 250.236,48.155 251.742 C 48.986 253.309,49.599 255.155,49.778 256.630 C 49.936 257.933,50.499 259.784,51.029 260.743 C 51.558 261.702,52.353 263.698,52.794 265.179 C 53.235 266.660,53.961 268.203,54.407 268.607 C 54.853 269.010,55.504 270.344,55.854 271.570 C 56.203 272.797,56.916 274.257,57.438 274.815 C 57.960 275.374,58.642 276.676,58.952 277.709 C 59.263 278.742,59.981 280.138,60.548 280.811 C 61.115 281.485,61.933 282.838,62.367 283.818 C 62.800 284.798,63.355 285.600,63.600 285.600 C 63.844 285.600,64.463 286.545,64.974 287.700 C 65.486 288.855,66.343 290.250,66.879 290.800 C 67.415 291.350,68.091 292.392,68.382 293.116 C 68.672 293.840,69.220 294.650,69.599 294.916 C 69.977 295.182,70.744 296.300,71.303 297.400 C 71.862 298.500,72.877 299.810,73.559 300.312 C 74.242 300.814,74.800 301.483,74.800 301.800 C 74.800 302.117,75.338 302.774,75.996 303.260 C 76.654 303.747,77.303 304.495,77.439 304.924 C 77.575 305.352,78.882 306.895,80.343 308.353 C 81.804 309.811,83.325 311.506,83.721 312.120 C 84.118 312.734,84.840 313.418,85.326 313.639 C 85.812 313.860,86.515 314.574,86.888 315.224 C 87.261 315.875,87.983 316.565,88.492 316.759 C 89.001 316.952,89.658 317.561,89.953 318.111 C 90.878 319.840,92.262 320.315,93.314 319.264 C 94.189 318.389,94.202 318.199,94.400 303.489 L 94.600 288.600 114.000 288.600 L 133.400 288.600 133.600 317.600 C 133.710 333.550,133.962 346.960,134.160 347.400 C 134.911 349.072,136.134 349.971,138.258 350.412 C 139.440 350.657,140.903 351.275,141.508 351.784 C 142.673 352.765,145.061 353.589,145.905 353.302 C 147.398 352.794,147.394 352.923,147.600 296.600 L 147.800 241.800 167.289 241.696 L 186.777 241.592 186.889 301.431 L 187.000 361.269 188.122 362.235 C 189.555 363.467,198.614 363.728,199.771 362.571 C 200.117 362.226,200.444 361.911,200.498 361.871 C 200.552 361.832,200.687 320.670,200.798 270.400 L 201.000 179.000 220.400 179.000 L 239.800 179.000 240.000 267.471 L 240.200 355.941 241.056 357.071 C 241.527 357.692,242.157 358.161,242.456 358.112 C 248.389 357.155,254.680 354.879,256.280 353.112 C 256.969 352.350,257.009 347.061,257.200 229.858 L 257.400 107.400 276.800 107.400 L 296.200 107.400 296.400 218.400 C 296.556 304.820,296.708 329.589,297.089 330.253 C 298.151 332.106,298.570 331.907,303.400 327.253 C 304.060 326.617,305.146 325.821,305.813 325.483 C 308.331 324.209,324.564 307.978,325.898 305.400 C 326.240 304.740,326.853 303.964,327.262 303.676 C 327.670 303.387,328.256 302.667,328.562 302.076 C 328.869 301.484,329.723 300.357,330.460 299.570 C 332.229 297.682,334.775 294.117,335.255 292.856 C 335.465 292.302,336.008 291.589,336.461 291.272 C 336.914 290.955,337.519 290.134,337.806 289.448 C 338.093 288.761,338.874 287.513,339.542 286.673 C 340.210 285.833,340.968 284.483,341.226 283.673 C 341.485 282.863,342.112 281.750,342.619 281.200 C 343.127 280.650,343.929 279.210,344.401 278.000 C 344.874 276.790,345.616 275.418,346.051 274.952 C 346.486 274.485,347.182 272.982,347.597 271.610 C 348.012 270.238,348.631 268.807,348.973 268.430 C 349.314 268.053,349.930 266.767,350.341 265.572 C 350.752 264.377,351.547 262.724,352.108 261.897 C 352.742 260.963,353.315 259.297,353.621 257.497 C 353.926 255.704,354.540 253.914,355.233 252.800 C 356.025 251.525,356.549 249.841,357.027 247.029 C 357.398 244.845,358.128 242.145,358.647 241.029 C 359.167 239.913,359.596 238.460,359.601 237.800 C 359.606 237.140,360.165 233.990,360.843 230.800 C 363.925 216.305,364.096 180.783,361.113 175.000 C 360.772 174.340,360.287 171.665,360.035 169.056 C 359.775 166.371,359.218 163.332,358.751 162.056 C 357.747 159.310,357.425 158.189,356.634 154.676 C 356.296 153.177,355.657 151.442,355.213 150.819 C 354.770 150.196,354.132 148.362,353.796 146.743 C 353.459 145.124,352.829 143.350,352.396 142.800 C 351.251 141.348,350.558 139.646,350.235 137.495 C 350.079 136.453,349.538 135.109,349.030 134.502 C 348.523 133.896,347.818 132.397,347.463 131.170 C 347.109 129.944,346.431 128.594,345.957 128.170 C 345.484 127.747,344.748 126.590,344.322 125.600 C 343.897 124.610,343.129 123.350,342.616 122.800 C 342.104 122.250,341.558 121.202,341.404 120.470 C 341.250 119.739,340.606 118.551,339.973 117.831 C 339.341 117.111,338.482 115.729,338.064 114.761 C 337.646 113.792,336.901 112.640,336.409 112.200 C 335.917 111.760,335.170 110.725,334.749 109.900 C 334.328 109.075,333.797 108.400,333.569 108.400 C 333.341 108.400,332.783 107.545,332.329 106.500 C 331.875 105.455,330.805 103.918,329.951 103.085 C 329.098 102.252,328.400 101.317,328.400 101.008 C 328.400 100.698,327.868 100.131,327.217 99.746 C 326.566 99.362,325.822 98.535,325.562 97.908 C 325.303 97.282,324.752 96.589,324.339 96.368 C 323.926 96.146,323.148 95.268,322.609 94.415 C 322.071 93.561,321.272 92.750,320.835 92.611 C 320.398 92.473,319.942 92.049,319.822 91.669 C 319.529 90.746,312.653 83.600,312.058 83.600 C 311.801 83.600,310.262 82.250,308.638 80.600 C 307.015 78.950,305.493 77.600,305.255 77.600 C 305.018 77.600,304.427 77.064,303.943 76.408 C 303.458 75.753,302.478 75.024,301.764 74.788 C 301.050 74.552,300.195 73.946,299.864 73.442 C 299.533 72.937,298.348 71.937,297.231 71.220 C 296.114 70.503,295.200 69.745,295.200 69.536 C 295.200 69.326,294.424 68.812,293.475 68.392 C 292.526 67.972,291.413 67.256,291.000 66.800 C 290.587 66.344,289.431 65.609,288.430 65.166 C 287.429 64.723,286.248 64.027,285.805 63.619 C 285.362 63.211,284.284 62.581,283.408 62.220 C 282.533 61.859,281.320 61.056,280.713 60.435 C 280.106 59.815,278.752 59.072,277.705 58.785 C 276.657 58.499,275.300 57.852,274.688 57.348 C 274.077 56.844,272.907 56.311,272.088 56.162 C 270.310 55.841,268.400 54.928,268.400 54.400 C 268.400 53.858,266.473 52.956,264.600 52.621 C 263.720 52.463,262.100 51.827,261.000 51.208 C 259.900 50.589,258.046 49.956,256.881 49.801 C 255.716 49.646,253.749 48.979,252.510 48.318 C 251.075 47.552,249.034 46.918,246.880 46.569 C 242.835 45.915,242.122 45.704,240.808 44.776 C 240.140 44.304,238.047 43.837,234.600 43.389 C 231.740 43.018,228.680 42.473,227.800 42.177 C 224.108 40.937,221.024 40.737,203.400 40.598 C 187.387 40.471,184.958 40.535,181.400 41.178 M220.000 41.946 C 220.990 42.150,224.140 42.700,227.000 43.168 C 234.385 44.377,237.932 45.146,240.000 45.988 C 240.990 46.391,243.134 46.925,244.764 47.174 C 246.394 47.423,248.914 48.139,250.364 48.764 C 251.814 49.389,253.810 50.020,254.800 50.167 C 255.790 50.313,257.609 50.956,258.843 51.595 C 260.076 52.235,262.178 53.010,263.513 53.318 C 264.875 53.633,266.476 54.330,267.160 54.905 C 267.831 55.470,269.059 56.148,269.890 56.413 C 270.720 56.678,272.300 57.392,273.400 58.000 C 274.500 58.608,276.080 59.322,276.910 59.587 C 277.741 59.852,278.940 60.506,279.574 61.040 C 280.209 61.574,281.353 62.272,282.116 62.591 C 282.879 62.910,284.050 63.630,284.718 64.192 C 285.386 64.754,286.921 65.651,288.129 66.186 C 289.338 66.720,290.448 67.354,290.597 67.595 C 290.746 67.836,291.556 68.467,292.398 68.999 C 293.240 69.530,294.357 70.378,294.880 70.882 C 295.910 71.875,298.941 74.115,300.992 75.400 C 301.695 75.840,302.704 76.605,303.235 77.100 C 308.670 82.165,310.509 83.818,311.317 84.362 C 312.375 85.075,315.162 87.888,319.505 92.629 C 326.751 100.537,330.352 104.859,331.315 106.800 C 331.958 108.098,333.347 110.047,335.736 113.002 C 336.270 113.663,337.008 114.923,337.375 115.802 C 337.742 116.681,338.460 117.850,338.970 118.400 C 339.480 118.950,340.480 120.570,341.191 122.000 C 344.200 128.047,344.762 129.071,345.344 129.553 C 345.681 129.833,346.256 130.993,346.622 132.131 C 346.988 133.269,347.742 134.874,348.297 135.698 C 348.852 136.522,349.556 138.276,349.861 139.596 C 350.166 140.916,350.941 142.825,351.584 143.839 C 352.314 144.990,352.856 146.508,353.027 147.880 C 353.178 149.089,353.825 151.058,354.463 152.255 C 355.106 153.459,355.973 156.123,356.404 158.219 C 356.833 160.303,357.442 162.508,357.759 163.120 C 358.396 164.353,358.945 167.174,359.604 172.600 C 360.267 178.059,360.675 180.498,361.110 181.602 C 361.937 183.697,362.516 195.674,362.297 206.168 C 362.087 216.266,361.758 219.770,360.585 224.400 C 360.278 225.610,359.913 227.860,359.772 229.400 C 359.400 233.469,358.225 239.205,357.459 240.685 C 357.095 241.390,356.607 243.369,356.375 245.083 C 356.113 247.022,355.442 249.334,354.599 251.200 C 353.854 252.850,353.047 255.190,352.807 256.400 C 352.567 257.610,351.859 259.590,351.234 260.800 C 350.610 262.010,349.971 263.589,349.815 264.310 C 349.660 265.030,349.111 266.119,348.597 266.731 C 348.082 267.342,347.274 269.040,346.801 270.505 C 346.328 271.969,345.606 273.593,345.196 274.114 C 344.787 274.635,343.975 276.037,343.393 277.230 C 341.220 281.681,339.769 284.290,338.712 285.647 C 338.114 286.415,337.364 287.667,337.045 288.430 C 336.727 289.192,336.073 290.172,335.592 290.607 C 335.111 291.042,334.439 291.937,334.098 292.597 C 333.447 293.856,331.066 297.174,329.013 299.683 C 328.346 300.499,327.170 301.997,326.400 303.012 C 323.093 307.370,305.841 324.800,304.834 324.800 C 304.399 324.800,302.726 326.255,299.738 329.231 L 298.476 330.489 297.938 329.544 C 297.492 328.762,297.366 309.604,297.200 217.917 C 297.001 107.820,296.996 107.231,296.200 106.630 C 294.819 105.587,258.444 105.712,257.144 106.765 L 256.200 107.529 256.000 230.049 L 255.800 352.569 254.800 353.056 C 249.202 355.782,242.607 357.372,241.752 356.202 C 241.287 355.566,241.200 341.659,241.200 267.599 L 241.200 179.751 240.384 178.875 L 239.569 178.000 220.413 178.000 C 203.532 178.000,201.182 178.075,200.629 178.629 C 200.061 179.196,200.000 188.055,200.000 270.167 C 200.000 360.466,199.995 361.081,199.203 361.798 C 198.263 362.648,189.654 362.474,188.579 361.583 C 188.078 361.167,188.000 353.060,188.000 301.580 L 188.000 242.058 186.946 241.229 C 185.441 240.045,149.225 239.935,147.706 241.109 L 146.811 241.800 146.706 296.486 C 146.585 359.187,147.013 353.232,142.760 351.273 C 141.352 350.624,139.396 349.848,138.413 349.547 C 137.168 349.166,136.349 348.588,135.713 347.641 L 134.800 346.282 134.800 317.795 C 134.800 289.581,134.792 289.298,133.971 288.254 L 133.142 287.200 114.246 287.200 C 95.783 287.200,95.331 287.219,94.475 288.016 C 93.606 288.825,93.600 288.936,93.600 303.127 C 93.600 321.492,93.944 320.759,88.086 314.867 C 80.019 306.756,73.470 299.308,72.200 296.800 C 71.810 296.030,70.931 294.743,70.245 293.939 C 68.529 291.926,67.407 290.175,66.217 287.655 C 65.660 286.476,64.679 284.913,64.038 284.182 C 63.396 283.451,62.740 282.440,62.580 281.936 C 62.420 281.431,61.684 280.139,60.944 279.064 C 60.205 277.990,59.599 276.905,59.598 276.655 C 59.597 276.405,59.055 275.390,58.392 274.400 C 57.729 273.410,56.919 271.708,56.591 270.617 C 56.262 269.526,55.563 267.996,55.036 267.217 C 54.510 266.438,53.775 264.726,53.403 263.414 C 53.032 262.102,52.192 260.000,51.538 258.742 C 50.830 257.382,50.253 255.540,50.115 254.196 C 49.966 252.752,49.524 251.410,48.890 250.476 C 48.277 249.573,47.674 247.787,47.313 245.807 C 46.992 244.043,46.210 241.228,45.577 239.551 C 44.755 237.377,44.303 235.197,43.999 231.951 C 43.765 229.448,43.085 225.150,42.488 222.400 C 41.277 216.820,40.848 187.879,41.913 183.600 C 42.889 179.679,43.197 178.010,43.812 173.288 C 44.164 170.586,44.808 167.346,45.243 166.088 C 45.678 164.829,46.464 161.781,46.989 159.312 C 47.514 156.844,48.393 153.784,48.943 152.512 C 49.492 151.241,50.155 149.210,50.415 148.000 C 50.676 146.790,51.297 145.080,51.794 144.200 C 52.292 143.320,53.008 141.520,53.385 140.200 C 53.762 138.880,54.595 137.004,55.235 136.031 C 55.876 135.059,56.400 134.054,56.400 133.798 C 56.400 133.543,57.098 131.998,57.951 130.367 C 58.805 128.735,59.636 126.950,59.798 126.400 C 59.960 125.850,60.496 124.860,60.990 124.200 C 61.483 123.540,62.359 122.068,62.936 120.928 C 63.513 119.789,64.172 118.741,64.401 118.599 C 64.630 118.458,65.361 117.320,66.024 116.071 C 66.687 114.822,67.628 113.235,68.115 112.544 C 68.602 111.853,69.314 110.773,69.697 110.144 C 70.080 109.515,71.130 108.100,72.030 107.000 C 72.930 105.900,74.193 104.280,74.837 103.400 C 75.481 102.520,76.558 101.170,77.229 100.400 C 77.901 99.630,79.902 97.290,81.676 95.200 C 85.776 90.370,90.370 85.776,95.200 81.676 C 97.290 79.902,99.630 77.901,100.400 77.229 C 102.166 75.690,104.909 73.639,106.591 72.600 C 107.304 72.160,108.603 71.170,109.478 70.400 C 111.149 68.929,112.573 68.011,115.581 66.466 C 116.582 65.953,117.940 65.024,118.600 64.402 C 119.260 63.781,120.430 62.985,121.200 62.633 C 121.970 62.281,123.219 61.540,123.976 60.985 C 124.733 60.431,125.813 59.869,126.376 59.738 C 126.939 59.607,128.210 59.011,129.200 58.415 C 130.190 57.818,131.917 57.026,133.038 56.654 C 134.159 56.282,135.660 55.546,136.373 55.020 C 137.086 54.494,138.599 53.845,139.735 53.579 C 142.144 53.014,143.084 52.587,144.245 51.532 C 144.760 51.064,146.166 50.601,147.845 50.347 C 149.439 50.105,151.359 49.489,152.400 48.885 C 153.638 48.166,155.521 47.629,158.432 47.164 C 160.877 46.773,163.580 46.056,164.832 45.466 C 166.521 44.670,168.327 44.302,173.000 43.799 C 176.300 43.444,180.170 42.862,181.600 42.505 C 186.521 41.279,214.767 40.868,220.000 41.946 " stroke="none" fill="#04470f" fill-rule="evenodd"></path><path id="path3" d="M187.400 41.571 C 185.640 41.728,183.030 42.149,181.600 42.505 C 180.170 42.862,176.300 43.444,173.000 43.799 C 168.327 44.302,166.521 44.670,164.832 45.466 C 163.580 46.056,160.877 46.773,158.432 47.164 C 155.521 47.629,153.638 48.166,152.400 48.885 C 151.359 49.489,149.439 50.105,147.845 50.347 C 146.166 50.601,144.760 51.064,144.245 51.532 C 143.084 52.587,142.144 53.014,139.735 53.579 C 138.599 53.845,137.086 54.494,136.373 55.020 C 135.660 55.546,134.159 56.282,133.038 56.654 C 131.917 57.026,130.190 57.818,129.200 58.415 C 128.210 59.011,126.939 59.607,126.376 59.738 C 125.813 59.869,124.733 60.431,123.976 60.985 C 123.219 61.540,121.970 62.281,121.200 62.633 C 120.430 62.985,119.260 63.781,118.600 64.402 C 117.940 65.024,116.582 65.953,115.581 66.466 C 112.573 68.011,111.149 68.929,109.478 70.400 C 108.603 71.170,107.304 72.160,106.591 72.600 C 104.909 73.639,102.166 75.690,100.400 77.229 C 99.630 77.901,97.290 79.902,95.200 81.676 C 90.370 85.776,85.776 90.370,81.676 95.200 C 79.902 97.290,77.901 99.630,77.229 100.400 C 76.558 101.170,75.481 102.520,74.837 103.400 C 74.193 104.280,72.930 105.900,72.030 107.000 C 71.130 108.100,70.080 109.515,69.697 110.144 C 69.314 110.773,68.602 111.853,68.115 112.544 C 67.628 113.235,66.687 114.822,66.024 116.071 C 65.361 117.320,64.630 118.458,64.401 118.599 C 64.172 118.741,63.513 119.789,62.936 120.928 C 62.359 122.068,61.483 123.540,60.990 124.200 C 60.496 124.860,59.960 125.850,59.798 126.400 C 59.636 126.950,58.805 128.735,57.951 130.367 C 57.098 131.998,56.400 133.543,56.400 133.798 C 56.400 134.054,55.876 135.059,55.235 136.031 C 54.595 137.004,53.762 138.880,53.385 140.200 C 53.008 141.520,52.292 143.320,51.794 144.200 C 51.297 145.080,50.676 146.790,50.415 148.000 C 50.155 149.210,49.492 151.241,48.943 152.512 C 48.393 153.784,47.514 156.844,46.989 159.312 C 46.464 161.781,45.678 164.829,45.243 166.088 C 44.808 167.346,44.164 170.586,43.812 173.288 C 43.197 178.010,42.889 179.679,41.913 183.600 C 40.848 187.879,41.277 216.820,42.488 222.400 C 43.085 225.150,43.765 229.448,43.999 231.951 C 44.303 235.197,44.755 237.377,45.577 239.551 C 46.210 241.228,46.992 244.043,47.313 245.807 C 47.674 247.787,48.277 249.573,48.890 250.476 C 49.524 251.410,49.966 252.752,50.115 254.196 C 50.253 255.540,50.830 257.382,51.538 258.742 C 52.192 260.000,53.032 262.102,53.403 263.414 C 53.775 264.726,54.510 266.438,55.036 267.217 C 55.563 267.996,56.262 269.526,56.591 270.617 C 56.919 271.708,57.729 273.410,58.392 274.400 C 59.055 275.390,59.597 276.405,59.598 276.655 C 59.599 276.905,60.205 277.990,60.944 279.064 C 61.684 280.139,62.420 281.431,62.580 281.936 C 62.740 282.440,63.396 283.451,64.038 284.182 C 64.679 284.913,65.660 286.476,66.217 287.655 C 67.407 290.175,68.529 291.926,70.245 293.939 C 70.931 294.743,71.810 296.030,72.200 296.800 C 73.470 299.308,80.019 306.756,88.086 314.867 C 93.944 320.759,93.600 321.492,93.600 303.127 C 93.600 288.936,93.606 288.825,94.475 288.016 C 95.331 287.219,95.783 287.200,114.246 287.200 L 133.142 287.200 133.971 288.254 C 134.792 289.298,134.800 289.581,134.800 317.795 L 134.800 346.282 135.713 347.641 C 136.349 348.588,137.168 349.166,138.413 349.547 C 139.396 349.848,141.352 350.624,142.760 351.273 C 147.013 353.232,146.585 359.187,146.706 296.486 L 146.811 241.800 147.706 241.109 C 149.225 239.935,185.441 240.045,186.946 241.229 L 188.000 242.058 188.000 301.580 C 188.000 353.060,188.078 361.167,188.579 361.583 C 189.654 362.474,198.263 362.648,199.203 361.798 C 199.995 361.081,200.000 360.466,200.000 270.167 C 200.000 188.055,200.061 179.196,200.629 178.629 C 201.182 178.075,203.532 178.000,220.413 178.000 L 239.569 178.000 240.384 178.875 L 241.200 179.751 241.200 267.599 C 241.200 341.659,241.287 355.566,241.752 356.202 C 242.607 357.372,249.202 355.782,254.800 353.056 L 255.800 352.569 256.000 230.049 L 256.200 107.529 257.144 106.765 C 258.444 105.712,294.819 105.587,296.200 106.630 C 296.996 107.231,297.001 107.820,297.200 217.917 C 297.366 309.604,297.492 328.762,297.938 329.544 L 298.476 330.489 299.738 329.231 C 302.726 326.255,304.399 324.800,304.834 324.800 C 305.841 324.800,323.093 307.370,326.400 303.012 C 327.170 301.997,328.346 300.499,329.013 299.683 C 331.066 297.174,333.447 293.856,334.098 292.597 C 334.439 291.937,335.111 291.042,335.592 290.607 C 336.073 290.172,336.727 289.192,337.045 288.430 C 337.364 287.667,338.114 286.415,338.712 285.647 C 339.769 284.290,341.220 281.681,343.393 277.230 C 343.975 276.037,344.787 274.635,345.196 274.114 C 345.606 273.593,346.328 271.969,346.801 270.505 C 347.274 269.040,348.082 267.342,348.597 266.731 C 349.111 266.119,349.660 265.030,349.815 264.310 C 349.971 263.589,350.610 262.010,351.234 260.800 C 351.859 259.590,352.567 257.610,352.807 256.400 C 353.047 255.190,353.854 252.850,354.599 251.200 C 355.442 249.334,356.113 247.022,356.375 245.083 C 356.607 243.369,357.095 241.390,357.459 240.685 C 358.225 239.205,359.400 233.469,359.772 229.400 C 359.913 227.860,360.278 225.610,360.585 224.400 C 361.758 219.770,362.087 216.266,362.297 206.168 C 362.516 195.674,361.937 183.697,361.110 181.602 C 360.675 180.498,360.267 178.059,359.604 172.600 C 358.945 167.174,358.396 164.353,357.759 163.120 C 357.442 162.508,356.833 160.303,356.404 158.219 C 355.973 156.123,355.106 153.459,354.463 152.255 C 353.825 151.058,353.178 149.089,353.027 147.880 C 352.856 146.508,352.314 144.990,351.584 143.839 C 350.941 142.825,350.166 140.916,349.861 139.596 C 349.556 138.276,348.852 136.522,348.297 135.698 C 347.742 134.874,346.988 133.269,346.622 132.131 C 346.256 130.993,345.681 129.833,345.344 129.553 C 344.762 129.071,344.200 128.047,341.191 122.000 C 340.480 120.570,339.480 118.950,338.970 118.400 C 338.460 117.850,337.742 116.681,337.375 115.802 C 337.008 114.923,336.270 113.663,335.736 113.002 C 333.347 110.047,331.958 108.098,331.315 106.800 C 330.352 104.859,326.751 100.537,319.505 92.629 C 315.162 87.888,312.375 85.075,311.317 84.362 C 310.509 83.818,308.670 82.165,303.235 77.100 C 302.704 76.605,301.695 75.840,300.992 75.400 C 298.941 74.115,295.910 71.875,294.880 70.882 C 294.357 70.378,293.240 69.530,292.398 68.999 C 291.556 68.467,290.746 67.836,290.597 67.595 C 290.448 67.354,289.338 66.720,288.129 66.186 C 286.921 65.651,285.386 64.754,284.718 64.192 C 284.050 63.630,282.879 62.910,282.116 62.591 C 281.353 62.272,280.209 61.574,279.574 61.040 C 278.940 60.506,277.741 59.852,276.910 59.587 C 276.080 59.322,274.500 58.608,273.400 58.000 C 272.300 57.392,270.720 56.678,269.890 56.413 C 269.059 56.148,267.831 55.470,267.160 54.905 C 266.476 54.330,264.875 53.633,263.513 53.318 C 262.178 53.010,260.076 52.235,258.843 51.595 C 257.609 50.956,255.790 50.313,254.800 50.167 C 253.810 50.020,251.814 49.389,250.364 48.764 C 248.914 48.139,246.394 47.423,244.764 47.174 C 243.134 46.925,240.990 46.391,240.000 45.988 C 237.932 45.146,234.385 44.377,227.000 43.168 C 224.140 42.700,220.990 42.150,220.000 41.946 C 217.748 41.482,191.728 41.182,187.400 41.571 M213.003 42.988 C 216.709 44.198,218.000 44.365,226.600 44.751 L 233.400 45.055 234.615 46.273 C 235.731 47.393,236.120 47.513,239.415 47.756 C 245.855 48.232,246.748 48.405,247.008 49.226 C 247.289 50.110,249.054 50.651,252.929 51.042 C 255.121 51.262,255.771 51.490,256.235 52.197 C 257.059 53.455,258.338 53.925,261.797 54.238 C 264.602 54.492,264.883 54.601,265.420 55.638 C 265.990 56.741,267.898 57.593,269.811 57.598 C 270.257 57.599,271.084 58.127,271.649 58.770 C 272.317 59.532,273.220 60.029,274.238 60.193 C 277.169 60.668,277.600 60.815,277.600 61.346 C 277.600 62.264,278.963 63.159,281.118 63.657 C 282.267 63.922,283.200 64.363,283.200 64.640 C 283.200 65.316,285.134 66.800,286.016 66.800 C 286.406 66.800,287.461 67.416,288.362 68.168 C 289.263 68.921,290.529 69.653,291.176 69.795 C 291.937 69.962,292.638 70.538,293.163 71.427 C 293.649 72.250,294.288 72.800,294.759 72.800 C 295.192 72.800,295.936 73.349,296.414 74.020 C 296.892 74.691,297.967 75.513,298.802 75.848 C 299.638 76.182,300.890 77.080,301.584 77.842 C 302.278 78.605,303.376 79.335,304.023 79.465 C 304.717 79.603,305.200 79.954,305.200 80.319 C 305.200 81.207,306.394 82.400,307.283 82.400 C 307.761 82.400,308.192 82.830,308.447 83.562 C 308.686 84.250,309.325 84.921,310.012 85.205 C 310.649 85.469,311.532 86.296,311.972 87.043 C 312.462 87.874,313.086 88.400,313.581 88.400 C 314.127 88.400,314.580 88.855,314.975 89.803 C 315.299 90.576,315.990 91.368,316.518 91.569 C 317.044 91.769,317.706 92.490,317.988 93.171 C 318.300 93.925,318.890 94.508,319.494 94.659 C 320.128 94.819,320.695 95.409,321.067 96.298 C 321.430 97.168,322.074 97.848,322.788 98.118 C 323.573 98.414,324.002 98.911,324.162 99.708 C 324.325 100.523,324.751 101.002,325.597 101.321 C 326.416 101.630,326.800 102.047,326.800 102.628 C 326.800 103.518,328.957 106.800,329.542 106.800 C 329.727 106.800,330.160 107.517,330.504 108.393 C 330.879 109.347,331.544 110.174,332.165 110.457 C 332.802 110.747,333.200 111.253,333.200 111.771 C 333.200 112.691,335.011 115.600,335.583 115.600 C 335.778 115.600,336.155 116.275,336.421 117.100 C 337.017 118.951,337.506 119.584,338.684 120.032 C 339.363 120.290,339.600 120.696,339.600 121.603 C 339.600 123.298,340.579 125.476,341.468 125.758 C 341.966 125.916,342.372 126.683,342.706 128.097 C 343.053 129.565,343.607 130.583,344.542 131.469 C 345.628 132.498,345.928 133.142,346.126 134.869 C 346.323 136.587,346.606 137.200,347.585 138.029 C 348.253 138.595,348.800 139.351,348.800 139.709 C 348.800 141.466,349.779 144.551,350.673 145.614 C 351.433 146.517,351.771 147.555,352.069 149.903 C 352.378 152.331,352.749 153.432,353.785 155.000 C 354.903 156.691,355.148 157.494,355.368 160.200 C 355.698 164.248,356.187 165.769,357.420 166.576 C 358.384 167.208,358.400 167.313,358.403 172.909 C 358.408 180.110,359.244 186.730,360.384 188.573 C 361.195 189.886,361.219 190.337,361.110 202.066 L 360.997 214.200 359.892 217.112 C 358.893 219.743,358.764 220.687,358.548 226.912 C 358.325 233.310,358.240 233.902,357.348 235.231 C 356.263 236.846,355.220 241.204,355.201 244.200 C 355.188 246.179,355.030 246.600,353.325 249.197 C 352.771 250.040,352.350 251.498,352.179 253.165 C 351.985 255.057,351.593 256.284,350.788 257.519 C 350.100 258.572,349.474 260.314,349.169 262.019 C 348.883 263.616,348.470 264.800,348.198 264.800 C 347.315 264.800,346.425 266.228,345.945 268.418 C 345.681 269.618,345.156 270.870,344.776 271.200 C 343.912 271.952,342.982 273.804,342.616 275.501 C 342.462 276.217,341.820 277.319,341.189 277.950 C 340.363 278.775,339.967 279.653,339.779 281.077 C 339.555 282.762,339.351 283.119,338.407 283.475 C 337.629 283.769,337.146 284.359,336.792 285.447 C 336.514 286.301,335.677 287.682,334.931 288.516 C 334.184 289.349,333.464 290.580,333.330 291.250 C 333.184 291.980,332.718 292.637,332.170 292.886 C 331.666 293.116,331.032 293.865,330.761 294.552 C 330.489 295.238,329.754 296.221,329.126 296.735 C 328.498 297.250,327.693 298.240,327.338 298.935 C 326.982 299.631,326.086 300.876,325.345 301.701 C 324.605 302.527,324.000 303.571,324.000 304.022 C 324.000 304.579,323.602 304.980,322.757 305.275 C 321.939 305.560,321.326 306.159,320.964 307.025 C 320.609 307.874,320.091 308.388,319.507 308.471 C 318.950 308.550,318.368 309.092,318.000 309.875 C 317.670 310.576,316.986 311.341,316.479 311.575 C 315.973 311.810,315.304 312.610,314.993 313.354 C 314.625 314.236,314.066 314.797,313.387 314.967 C 312.815 315.111,312.065 315.717,311.722 316.314 C 311.378 316.911,310.535 317.670,309.849 318.000 C 309.078 318.370,308.549 318.957,308.468 319.532 C 308.380 320.150,307.928 320.606,307.125 320.886 C 306.332 321.163,305.720 321.772,305.352 322.654 C 304.992 323.514,304.514 324.000,304.027 324.000 C 303.608 324.000,302.215 324.896,300.932 325.990 L 298.600 327.981 298.400 217.355 L 298.200 106.729 297.256 105.965 C 295.750 104.746,257.221 104.779,256.000 106.000 C 255.203 106.797,255.200 107.333,255.200 229.354 L 255.200 351.908 252.900 352.176 C 249.710 352.549,248.105 353.115,247.404 354.116 C 246.947 354.769,246.240 355.024,244.406 355.199 L 242.007 355.429 241.904 266.929 C 241.805 182.580,241.766 178.395,241.086 177.714 C 239.982 176.611,200.818 176.611,199.714 177.714 C 199.033 178.395,198.995 182.696,198.897 269.827 L 198.793 361.225 194.114 361.113 C 189.504 361.002,189.431 360.985,189.157 360.000 C 189.005 359.450,188.862 332.495,188.840 300.100 C 188.800 241.760,188.792 241.192,188.000 240.400 C 186.779 239.179,148.250 239.146,146.744 240.365 L 145.800 241.129 145.696 295.606 C 145.598 346.902,145.551 350.067,144.905 349.819 C 144.527 349.674,142.984 349.400,141.475 349.211 C 139.967 349.021,138.694 348.807,138.646 348.733 C 138.597 348.660,138.248 348.105,137.870 347.500 C 137.491 346.895,136.935 346.400,136.634 346.400 C 135.637 346.400,135.600 345.341,135.600 316.567 C 135.600 288.533,135.585 287.985,134.800 287.200 C 133.579 285.979,95.050 285.946,93.544 287.164 L 92.600 287.928 92.398 302.864 C 92.223 315.721,92.122 317.623,91.669 316.529 C 91.351 315.762,90.704 315.105,90.038 314.873 C 89.387 314.646,88.726 313.988,88.429 313.270 C 88.133 312.556,87.471 311.894,86.829 311.670 C 86.187 311.446,85.525 310.784,85.229 310.070 C 84.922 309.328,84.270 308.694,83.562 308.447 C 82.886 308.211,82.400 307.754,82.400 307.352 C 82.400 306.432,81.245 305.200,80.383 305.200 C 79.914 305.200,79.608 304.770,79.440 303.872 C 79.288 303.062,78.740 302.210,78.035 301.689 C 77.400 301.220,76.292 299.927,75.573 298.818 C 74.854 297.708,74.135 296.800,73.976 296.800 C 73.817 296.800,73.401 296.087,73.053 295.215 C 72.679 294.280,71.961 293.393,71.302 293.053 C 70.485 292.630,70.052 291.972,69.682 290.592 C 69.373 289.435,68.720 288.307,67.989 287.666 C 67.335 287.092,66.800 286.290,66.800 285.885 C 66.800 284.721,66.037 283.594,64.976 283.191 C 64.389 282.968,64.000 282.500,64.000 282.018 C 64.000 280.468,62.787 278.199,61.595 277.519 C 60.672 276.993,60.400 276.555,60.400 275.599 C 60.400 274.169,59.481 272.197,58.580 271.693 C 58.223 271.493,57.718 270.173,57.388 268.573 C 56.983 266.613,56.531 265.552,55.848 264.954 C 54.946 264.165,54.732 263.501,53.749 258.462 C 53.648 257.946,53.057 257.046,52.435 256.462 C 51.481 255.565,51.268 254.981,51.068 252.702 C 50.817 249.856,50.417 248.768,49.082 247.302 C 48.421 246.576,48.207 245.607,47.967 242.241 C 47.664 237.993,47.333 236.895,45.871 235.291 C 45.122 234.468,45.014 233.666,44.737 226.891 C 44.420 219.092,43.739 214.682,42.579 212.912 C 41.621 211.450,41.955 193.218,42.992 190.420 C 44.037 187.599,44.349 185.320,44.783 177.327 C 45.107 171.359,45.313 169.769,45.795 169.499 C 46.965 168.844,47.545 166.910,47.983 162.206 C 48.334 158.428,48.571 157.356,49.141 156.957 C 50.011 156.347,50.661 154.253,51.035 150.847 C 51.250 148.891,51.533 148.105,52.248 147.484 C 53.277 146.589,53.759 145.323,54.355 141.954 C 54.642 140.337,55.081 139.380,55.928 138.534 C 56.812 137.649,57.176 136.819,57.398 135.179 C 57.629 133.473,57.946 132.783,58.860 132.000 C 59.769 131.222,60.129 130.445,60.484 128.500 C 60.736 127.120,61.151 126.000,61.409 126.000 C 62.070 126.000,62.979 124.837,63.597 123.200 C 63.888 122.430,64.622 121.260,65.229 120.600 C 65.836 119.940,66.530 118.654,66.771 117.741 C 67.012 116.829,67.476 115.980,67.802 115.855 C 68.671 115.521,69.997 113.164,69.999 111.949 C 70.000 111.163,70.297 110.774,71.174 110.411 C 71.862 110.126,72.511 109.456,72.743 108.792 C 72.960 108.169,73.595 107.360,74.153 106.994 C 74.712 106.628,75.276 105.991,75.407 105.578 C 75.538 105.165,76.453 103.996,77.439 102.981 C 78.426 101.966,79.342 100.591,79.475 99.927 C 79.646 99.070,80.045 98.603,80.845 98.324 C 81.564 98.074,82.141 97.472,82.436 96.666 C 82.691 95.969,83.462 95.037,84.150 94.594 C 84.837 94.150,85.456 93.399,85.524 92.925 C 85.601 92.388,86.092 91.907,86.823 91.652 C 87.469 91.427,88.213 90.769,88.477 90.191 C 88.740 89.613,89.474 88.872,90.108 88.544 C 90.741 88.217,91.440 87.431,91.661 86.798 C 91.908 86.090,92.393 85.600,92.925 85.524 C 93.399 85.456,94.150 84.837,94.594 84.150 C 95.037 83.462,95.969 82.691,96.666 82.436 C 97.472 82.141,98.074 81.564,98.324 80.845 C 98.605 80.039,99.069 79.646,99.946 79.471 C 100.622 79.336,101.891 78.509,102.766 77.634 C 103.641 76.759,104.885 75.770,105.530 75.436 C 106.175 75.103,106.812 74.545,106.946 74.197 C 107.079 73.849,107.841 73.291,108.638 72.958 C 109.581 72.564,110.242 71.942,110.531 71.176 C 110.834 70.375,111.251 70.000,111.839 70.000 C 113.247 70.000,115.437 68.909,116.119 67.868 C 116.512 67.268,117.315 66.792,118.222 66.622 C 119.357 66.409,119.790 66.081,120.132 65.173 C 120.376 64.528,120.830 64.000,121.141 64.000 C 122.696 64.000,124.980 62.951,125.536 61.982 C 126.010 61.157,126.648 60.826,128.515 60.441 C 130.211 60.090,131.193 59.625,131.945 58.816 C 132.746 57.956,133.524 57.613,135.179 57.393 C 136.794 57.178,137.650 56.812,138.482 55.979 C 139.242 55.220,140.344 54.702,141.882 54.383 C 143.239 54.101,144.732 53.450,145.579 52.772 C 146.647 51.917,147.745 51.519,150.000 51.173 C 152.891 50.728,154.734 50.061,156.000 49.001 C 156.330 48.725,158.655 48.310,161.167 48.079 C 165.268 47.703,165.911 47.535,167.474 46.433 C 169.210 45.210,169.241 45.204,176.801 44.831 C 180.973 44.624,184.539 44.362,184.725 44.246 C 184.911 44.131,186.289 43.841,187.788 43.602 C 189.286 43.363,190.982 42.911,191.556 42.599 C 193.590 41.494,209.298 41.779,213.003 42.988 " stroke="none" fill="#04821c" fill-rule="evenodd"></path><path id="path4" d="M182.400 39.853 C 178.354 40.140,174.735 40.813,173.174 41.567 C 172.283 41.997,170.221 42.427,168.314 42.579 C 163.379 42.973,160.921 43.550,159.666 44.606 C 158.779 45.352,157.865 45.612,155.370 45.828 C 151.666 46.149,149.777 46.813,149.426 47.918 C 149.223 48.559,148.671 48.763,146.521 48.994 C 143.543 49.313,142.316 49.751,140.669 51.084 C 140.047 51.588,139.057 52.001,138.469 52.002 C 136.334 52.007,134.346 52.829,133.684 53.982 C 133.159 54.897,132.681 55.150,131.131 55.334 C 128.729 55.618,127.662 56.184,127.191 57.424 C 126.884 58.232,126.547 58.400,125.236 58.400 C 123.060 58.400,121.674 59.000,121.140 60.172 C 120.857 60.793,120.226 61.258,119.445 61.421 C 118.760 61.564,117.568 62.288,116.796 63.029 C 116.023 63.769,114.673 64.622,113.796 64.923 C 112.791 65.268,112.007 65.865,111.678 66.535 C 111.328 67.250,110.839 67.600,110.192 67.600 C 109.615 67.600,108.411 68.324,107.200 69.400 C 106.085 70.390,104.835 71.200,104.422 71.200 C 104.009 71.200,103.184 71.779,102.589 72.487 C 101.993 73.194,101.122 73.964,100.653 74.198 C 100.184 74.432,99.572 75.100,99.293 75.682 C 98.983 76.328,98.332 76.839,97.621 76.995 C 96.963 77.140,95.999 77.850,95.408 78.626 C 94.831 79.382,94.112 80.000,93.811 80.000 C 93.509 80.000,92.646 80.720,91.893 81.600 C 91.140 82.480,90.316 83.200,90.062 83.200 C 89.459 83.200,83.200 89.459,83.200 90.062 C 83.200 90.316,82.480 91.140,81.600 91.893 C 80.720 92.646,80.000 93.509,80.000 93.811 C 80.000 94.112,79.382 94.831,78.626 95.408 C 77.850 95.999,77.140 96.963,76.995 97.621 C 76.839 98.332,76.328 98.983,75.682 99.293 C 75.100 99.572,74.432 100.184,74.198 100.653 C 73.964 101.122,73.214 101.977,72.530 102.552 C 71.847 103.127,71.176 104.043,71.039 104.587 C 70.902 105.132,70.423 105.774,69.974 106.014 C 68.890 106.594,67.604 108.752,67.599 110.000 C 67.596 110.681,67.228 111.209,66.443 111.655 C 65.736 112.058,65.099 112.895,64.791 113.827 C 64.516 114.661,63.773 115.779,63.141 116.311 C 62.451 116.892,61.820 117.961,61.561 118.990 C 61.281 120.102,60.798 120.880,60.184 121.209 C 59.111 121.783,58.400 123.481,58.400 125.468 C 58.400 126.511,58.178 126.918,57.422 127.263 C 56.355 127.749,55.202 130.158,55.197 131.908 C 55.196 132.695,54.868 133.186,54.026 133.665 C 52.869 134.323,52.007 136.284,52.002 138.269 C 52.001 138.747,51.576 139.647,51.058 140.269 C 49.908 141.649,49.339 143.417,48.990 146.685 C 48.782 148.640,48.562 149.222,47.962 149.412 C 46.814 149.776,46.401 150.871,45.966 154.703 C 45.652 157.467,45.376 158.395,44.630 159.194 C 43.364 160.549,43.233 161.110,42.819 166.947 C 42.526 171.086,42.309 172.205,41.608 173.189 C 38.997 176.855,38.746 223.964,41.313 228.556 C 42.118 229.995,42.342 231.112,42.576 234.853 C 42.937 240.599,43.405 242.742,44.577 244.000 C 45.237 244.708,45.588 245.701,45.781 247.400 C 46.200 251.087,46.728 252.685,47.810 253.536 C 48.354 253.965,48.800 254.597,48.800 254.941 C 48.800 257.765,49.808 261.811,50.796 262.950 C 51.525 263.791,51.963 264.855,52.133 266.200 C 52.334 267.794,52.659 268.443,53.731 269.400 C 54.787 270.342,55.132 271.021,55.338 272.560 C 55.629 274.727,56.113 275.511,57.484 276.032 C 58.240 276.319,58.401 276.679,58.406 278.090 C 58.413 280.127,59.105 281.663,60.242 282.167 C 60.756 282.394,61.247 283.197,61.538 284.283 C 61.808 285.294,62.580 286.606,63.366 287.392 C 64.114 288.141,64.850 289.319,65.002 290.011 C 65.201 290.917,65.603 291.382,66.439 291.674 C 67.308 291.977,67.600 292.333,67.600 293.092 C 67.600 294.300,68.975 296.652,70.003 297.202 C 70.406 297.417,70.857 298.151,71.007 298.833 C 71.197 299.697,71.642 300.224,72.477 300.575 C 73.261 300.905,73.930 301.652,74.417 302.739 C 74.939 303.905,75.405 304.400,75.980 304.400 C 76.431 304.400,76.800 304.662,76.800 304.981 C 76.800 306.102,77.679 307.474,78.834 308.157 C 79.475 308.535,80.000 309.084,80.000 309.376 C 80.000 310.215,92.027 321.965,92.644 321.728 C 94.820 320.893,94.991 319.647,95.122 303.700 L 95.245 288.800 114.222 288.800 L 133.200 288.800 133.200 317.903 C 133.200 352.108,132.987 350.432,137.400 351.006 C 138.951 351.207,139.629 351.536,140.420 352.469 C 141.563 353.820,144.535 354.633,146.120 354.030 C 148.331 353.190,148.191 356.824,148.313 297.139 L 148.427 242.000 167.413 242.000 L 186.400 242.000 186.400 301.574 C 186.400 361.710,186.429 362.915,187.877 363.348 C 190.532 364.142,199.678 363.783,200.432 362.856 C 201.184 361.931,201.200 360.038,201.200 270.756 L 201.200 179.600 220.400 179.600 L 239.600 179.600 239.600 267.550 C 239.600 315.923,239.712 356.060,239.849 356.744 C 240.436 359.679,242.612 360.593,244.628 358.752 C 245.199 358.231,246.652 357.830,249.298 357.464 C 253.072 356.941,253.797 356.647,256.200 354.666 L 257.400 353.676 257.502 230.638 L 257.604 107.600 276.595 107.600 L 295.586 107.600 295.693 218.900 C 295.779 308.392,295.900 330.375,296.312 331.095 C 297.351 332.914,300.528 332.622,301.020 330.663 C 301.182 330.016,301.681 329.581,302.531 329.343 C 303.375 329.108,304.001 328.565,304.400 327.725 C 304.825 326.830,305.362 326.392,306.242 326.223 C 307.288 326.023,309.556 324.245,312.345 321.440 C 313.373 320.406,314.891 318.891,315.495 318.295 C 316.269 317.533,317.533 316.269,318.295 315.495 C 318.891 314.891,320.406 313.373,321.440 312.345 C 323.366 310.431,326.000 307.415,326.000 307.126 C 326.000 306.937,326.707 306.015,327.570 305.078 C 328.434 304.141,329.259 302.902,329.404 302.325 C 329.549 301.748,330.011 301.186,330.430 301.076 C 330.850 300.966,331.510 300.293,331.897 299.580 C 332.283 298.866,333.023 297.904,333.540 297.441 C 334.057 296.979,334.894 295.790,335.400 294.800 C 335.907 293.810,336.789 292.564,337.360 292.030 C 337.932 291.497,338.400 290.711,338.400 290.284 C 338.400 289.857,339.051 288.912,339.846 288.183 C 340.933 287.188,341.381 286.379,341.649 284.929 C 341.845 283.868,342.320 282.781,342.703 282.514 C 344.126 281.521,344.380 281.158,344.819 279.498 C 345.066 278.564,345.791 277.253,346.430 276.585 C 347.239 275.739,347.738 274.643,348.071 272.985 C 348.382 271.433,348.848 270.365,349.403 269.927 C 350.312 269.211,351.200 266.799,351.200 265.045 C 351.200 264.308,351.498 263.847,352.173 263.540 C 353.391 262.985,353.865 261.791,354.361 258.034 C 354.687 255.567,354.930 254.927,355.804 254.230 C 356.703 253.513,356.934 252.856,357.410 249.670 C 357.742 247.450,358.387 245.088,359.010 243.815 C 359.783 242.235,360.153 240.625,360.437 237.611 C 360.723 234.567,361.026 233.262,361.638 232.435 C 363.465 229.964,364.300 211.520,363.631 188.448 L 363.255 175.496 362.069 173.588 C 361.016 171.894,360.851 171.192,360.603 167.340 C 360.255 161.933,359.774 159.637,358.765 158.562 C 358.216 157.979,357.807 156.582,357.416 153.965 C 356.944 150.809,356.689 150.063,355.827 149.322 C 354.998 148.609,354.712 147.843,354.340 145.337 C 353.949 142.713,353.680 142.031,352.594 140.912 C 351.583 139.871,351.254 139.125,351.053 137.410 C 350.740 134.753,350.131 133.328,349.204 133.085 C 348.721 132.959,348.418 132.317,348.221 130.999 C 347.846 128.501,347.305 127.376,346.244 126.893 C 345.651 126.623,345.209 125.844,344.847 124.431 C 344.474 122.978,344.003 122.164,343.258 121.691 C 341.822 120.778,341.613 120.419,341.606 118.847 C 341.602 117.837,341.262 117.176,340.266 116.236 C 339.532 115.544,338.798 114.443,338.634 113.789 C 338.295 112.430,337.314 111.200,336.570 111.200 C 336.291 111.200,335.950 110.681,335.810 110.047 C 335.671 109.413,334.955 108.190,334.219 107.330 C 333.483 106.470,332.609 105.117,332.277 104.323 C 331.931 103.494,331.192 102.648,330.542 102.336 C 329.919 102.038,329.343 101.435,329.262 100.997 C 329.063 99.924,328.420 99.188,327.316 98.768 C 326.812 98.577,326.400 98.123,326.400 97.760 C 326.400 97.156,322.249 92.200,317.801 87.494 C 316.811 86.446,316.000 85.428,316.000 85.232 C 316.000 85.036,315.235 84.424,314.300 83.872 C 313.365 83.320,311.980 82.223,311.222 81.434 C 310.463 80.645,309.623 80.000,309.354 80.000 C 309.085 80.000,308.471 79.362,307.988 78.581 C 307.429 77.676,306.704 77.081,305.988 76.938 C 305.244 76.789,304.785 76.396,304.629 75.771 C 304.461 75.104,303.928 74.691,302.799 74.352 C 301.691 74.020,300.965 73.467,300.416 72.537 C 299.982 71.802,299.364 71.200,299.043 71.200 C 298.721 71.200,298.078 70.717,297.613 70.126 C 296.589 68.824,294.942 67.783,293.356 67.434 C 292.689 67.288,292.011 66.792,291.790 66.288 C 291.552 65.747,290.743 65.192,289.717 64.867 C 288.718 64.551,287.934 64.022,287.789 63.567 C 287.484 62.606,286.432 62.032,284.311 61.670 C 283.041 61.453,282.506 61.112,282.002 60.194 C 281.466 59.221,280.907 58.896,278.973 58.437 C 277.668 58.128,276.532 57.700,276.450 57.487 C 275.999 56.324,274.663 55.624,272.405 55.369 C 270.279 55.128,269.892 54.951,269.395 53.990 C 268.770 52.782,267.023 52.000,264.950 52.000 C 263.987 52.000,263.445 51.735,262.991 51.043 C 262.320 50.018,260.588 49.452,256.689 48.983 C 255.037 48.784,254.264 48.493,253.979 47.962 C 253.330 46.747,252.104 46.335,248.143 45.995 C 244.766 45.706,244.251 45.552,243.012 44.464 C 241.530 43.163,240.690 42.978,234.711 42.639 C 232.071 42.489,230.952 42.244,230.111 41.634 C 227.969 40.080,226.081 39.944,205.000 39.818 C 193.780 39.752,183.610 39.768,182.400 39.853 M223.800 41.190 C 225.120 41.437,226.920 41.881,227.800 42.177 C 228.680 42.473,231.740 43.018,234.600 43.389 C 238.047 43.837,240.140 44.304,240.808 44.776 C 242.122 45.704,242.835 45.915,246.880 46.569 C 249.034 46.918,251.075 47.552,252.510 48.318 C 253.749 48.979,255.716 49.646,256.881 49.801 C 258.046 49.956,259.900 50.589,261.000 51.208 C 262.100 51.827,263.720 52.463,264.600 52.621 C 266.473 52.956,268.400 53.858,268.400 54.400 C 268.400 54.928,270.310 55.841,272.088 56.162 C 272.907 56.311,274.077 56.844,274.688 57.348 C 275.300 57.852,276.657 58.499,277.705 58.785 C 278.752 59.072,280.106 59.815,280.713 60.435 C 281.320 61.056,282.533 61.859,283.408 62.220 C 284.284 62.581,285.362 63.211,285.805 63.619 C 286.248 64.027,287.429 64.723,288.430 65.166 C 289.431 65.609,290.587 66.344,291.000 66.800 C 291.413 67.256,292.526 67.972,293.475 68.392 C 294.424 68.812,295.200 69.326,295.200 69.536 C 295.200 69.745,296.114 70.503,297.231 71.220 C 298.348 71.937,299.533 72.937,299.864 73.442 C 300.195 73.946,301.050 74.552,301.764 74.788 C 302.478 75.024,303.458 75.753,303.943 76.408 C 304.427 77.064,305.018 77.600,305.255 77.600 C 305.493 77.600,307.015 78.950,308.638 80.600 C 310.262 82.250,311.801 83.600,312.058 83.600 C 312.653 83.600,319.529 90.746,319.822 91.669 C 319.942 92.049,320.398 92.473,320.835 92.611 C 321.272 92.750,322.071 93.561,322.609 94.415 C 323.148 95.268,323.926 96.146,324.339 96.368 C 324.752 96.589,325.303 97.282,325.562 97.908 C 325.822 98.535,326.566 99.362,327.217 99.746 C 327.868 100.131,328.400 100.698,328.400 101.008 C 328.400 101.317,329.098 102.252,329.951 103.085 C 330.805 103.918,331.875 105.455,332.329 106.500 C 332.783 107.545,333.341 108.400,333.569 108.400 C 333.797 108.400,334.328 109.075,334.749 109.900 C 335.170 110.725,335.917 111.760,336.409 112.200 C 336.901 112.640,337.646 113.792,338.064 114.761 C 338.482 115.729,339.341 117.111,339.973 117.831 C 340.606 118.551,341.250 119.739,341.404 120.470 C 341.558 121.202,342.104 122.250,342.616 122.800 C 343.129 123.350,343.897 124.610,344.322 125.600 C 344.748 126.590,345.484 127.747,345.957 128.170 C 346.431 128.594,347.109 129.944,347.463 131.170 C 347.818 132.397,348.523 133.896,349.030 134.502 C 349.538 135.109,350.079 136.453,350.235 137.495 C 350.558 139.646,351.251 141.348,352.396 142.800 C 352.829 143.350,353.459 145.124,353.796 146.743 C 354.132 148.362,354.770 150.196,355.213 150.819 C 355.657 151.442,356.296 153.177,356.634 154.676 C 357.425 158.189,357.747 159.310,358.751 162.056 C 359.218 163.332,359.775 166.371,360.035 169.056 C 360.287 171.665,360.772 174.340,361.113 175.000 C 364.096 180.783,363.925 216.305,360.843 230.800 C 360.165 233.990,359.606 237.140,359.601 237.800 C 359.596 238.460,359.167 239.913,358.647 241.029 C 358.128 242.145,357.398 244.845,357.027 247.029 C 356.549 249.841,356.025 251.525,355.233 252.800 C 354.540 253.914,353.926 255.704,353.621 257.497 C 353.315 259.297,352.742 260.963,352.108 261.897 C 351.547 262.724,350.752 264.377,350.341 265.572 C 349.930 266.767,349.314 268.053,348.973 268.430 C 348.631 268.807,348.012 270.238,347.597 271.610 C 347.182 272.982,346.486 274.485,346.051 274.952 C 345.616 275.418,344.874 276.790,344.401 278.000 C 343.929 279.210,343.127 280.650,342.619 281.200 C 342.112 281.750,341.485 282.863,341.226 283.673 C 340.968 284.483,340.210 285.833,339.542 286.673 C 338.874 287.513,338.093 288.761,337.806 289.448 C 337.519 290.134,336.914 290.955,336.461 291.272 C 336.008 291.589,335.465 292.302,335.255 292.856 C 334.775 294.117,332.229 297.682,330.460 299.570 C 329.723 300.357,328.869 301.484,328.562 302.076 C 328.256 302.667,327.670 303.387,327.262 303.676 C 326.853 303.964,326.240 304.740,325.898 305.400 C 325.399 306.365,320.117 312.186,316.148 316.146 C 312.018 320.266,306.792 324.988,305.813 325.483 C 305.146 325.821,304.060 326.617,303.400 327.253 C 298.570 331.907,298.151 332.106,297.089 330.253 C 296.708 329.589,296.556 304.820,296.400 218.400 L 296.200 107.400 276.800 107.400 L 257.400 107.400 257.200 229.858 C 257.009 347.061,256.969 352.350,256.280 353.112 C 254.680 354.879,248.389 357.155,242.456 358.112 C 242.157 358.161,241.527 357.692,241.056 357.071 L 240.200 355.941 240.000 267.471 L 239.800 179.000 220.400 179.000 L 201.000 179.000 200.798 270.400 C 200.687 320.670,200.552 361.832,200.498 361.871 C 200.444 361.911,200.117 362.226,199.771 362.571 C 198.614 363.728,189.555 363.467,188.122 362.235 L 187.000 361.269 186.889 301.431 L 186.777 241.592 167.289 241.696 L 147.800 241.800 147.600 296.600 C 147.394 352.923,147.398 352.794,145.905 353.302 C 145.061 353.589,142.673 352.765,141.508 351.784 C 140.903 351.275,139.440 350.657,138.258 350.412 C 136.134 349.971,134.911 349.072,134.160 347.400 C 133.962 346.960,133.710 333.550,133.600 317.600 L 133.400 288.600 114.000 288.600 L 94.600 288.600 94.400 303.489 C 94.202 318.199,94.189 318.389,93.314 319.264 C 92.262 320.315,90.878 319.840,89.953 318.111 C 89.658 317.561,89.001 316.952,88.492 316.759 C 87.983 316.565,87.261 315.875,86.888 315.224 C 86.515 314.574,85.812 313.860,85.326 313.639 C 84.840 313.418,84.118 312.734,83.721 312.120 C 83.325 311.506,81.804 309.811,80.343 308.353 C 78.882 306.895,77.575 305.352,77.439 304.924 C 77.303 304.495,76.654 303.747,75.996 303.260 C 75.338 302.774,74.800 302.117,74.800 301.800 C 74.800 301.483,74.242 300.814,73.559 300.312 C 72.877 299.810,71.862 298.500,71.303 297.400 C 70.744 296.300,69.977 295.182,69.599 294.916 C 69.220 294.650,68.672 293.840,68.382 293.116 C 68.091 292.392,67.415 291.350,66.879 290.800 C 66.343 290.250,65.486 288.855,64.974 287.700 C 64.463 286.545,63.844 285.600,63.600 285.600 C 63.355 285.600,62.800 284.798,62.367 283.818 C 61.933 282.838,61.115 281.485,60.548 280.811 C 59.981 280.138,59.263 278.742,58.952 277.709 C 58.642 276.676,57.960 275.374,57.438 274.815 C 56.916 274.257,56.203 272.797,55.854 271.570 C 55.504 270.344,54.853 269.010,54.407 268.607 C 53.961 268.203,53.235 266.660,52.794 265.179 C 52.353 263.698,51.558 261.702,51.029 260.743 C 50.499 259.784,49.936 257.933,49.778 256.630 C 49.599 255.155,48.986 253.309,48.155 251.742 C 47.356 250.236,46.646 248.135,46.388 246.512 C 46.152 245.021,45.499 242.827,44.938 241.638 C 44.185 240.042,43.760 238.105,43.317 234.238 C 42.986 231.357,42.389 227.830,41.990 226.400 C 40.587 221.371,40.288 215.860,40.505 199.000 C 40.705 183.366,40.951 180.018,42.236 175.400 C 42.542 174.300,43.071 171.420,43.411 169.000 C 43.752 166.580,44.551 163.070,45.188 161.200 C 45.825 159.330,46.559 156.578,46.821 155.085 C 47.095 153.519,47.713 151.756,48.281 150.919 C 48.822 150.121,49.497 148.253,49.780 146.767 C 50.063 145.281,50.661 143.465,51.108 142.732 C 51.556 142.000,52.299 140.124,52.759 138.564 C 53.219 137.004,53.949 135.408,54.381 135.017 C 54.813 134.626,55.467 133.382,55.834 132.253 C 56.201 131.124,56.918 129.640,57.429 128.955 C 57.940 128.270,58.482 127.190,58.635 126.555 C 59.012 124.991,60.336 122.400,60.759 122.400 C 60.947 122.400,61.477 121.528,61.935 120.462 C 62.394 119.396,63.060 118.282,63.416 117.987 C 63.771 117.692,64.522 116.539,65.084 115.425 C 65.646 114.311,66.622 112.809,67.253 112.086 C 67.884 111.363,68.400 110.533,68.400 110.241 C 68.400 109.949,69.023 108.921,69.784 107.955 C 70.546 106.990,71.807 105.390,72.587 104.400 C 73.367 103.410,74.382 102.015,74.842 101.300 C 75.302 100.585,75.927 100.000,76.229 100.000 C 76.532 100.000,77.072 99.415,77.430 98.700 C 77.788 97.985,78.648 96.811,79.340 96.092 C 80.033 95.373,81.163 94.113,81.851 93.292 C 83.471 91.361,91.361 83.471,93.292 81.851 C 94.113 81.163,95.373 80.033,96.092 79.340 C 96.811 78.648,97.985 77.788,98.700 77.430 C 99.415 77.072,100.000 76.519,100.000 76.200 C 100.000 75.881,100.495 75.364,101.101 75.051 C 101.706 74.738,102.561 74.084,103.001 73.598 C 103.440 73.111,104.700 72.264,105.800 71.714 C 106.900 71.164,108.218 70.193,108.729 69.557 C 109.240 68.921,109.889 68.400,110.171 68.400 C 110.454 68.400,111.476 67.812,112.442 67.094 C 113.409 66.376,114.902 65.466,115.760 65.072 C 116.618 64.678,117.655 63.929,118.066 63.407 C 118.477 62.885,119.413 62.260,120.147 62.017 C 120.882 61.775,121.905 61.126,122.423 60.576 C 122.940 60.025,124.361 59.291,125.581 58.943 C 126.802 58.596,128.250 57.894,128.800 57.383 C 129.350 56.873,130.658 56.240,131.707 55.978 C 132.756 55.716,134.241 55.003,135.008 54.394 C 135.849 53.725,137.553 53.006,139.301 52.581 C 141.170 52.127,142.513 51.543,143.081 50.938 C 143.565 50.422,144.105 49.996,144.281 49.992 C 146.541 49.935,149.795 49.097,150.884 48.292 C 152.584 47.035,152.911 46.931,156.874 46.397 C 158.703 46.151,161.134 45.526,162.275 45.008 C 164.536 43.983,167.168 43.386,171.200 42.986 C 172.630 42.844,174.610 42.542,175.600 42.314 C 183.339 40.535,184.711 40.450,203.400 40.598 C 214.407 40.685,222.332 40.915,223.800 41.190 " stroke="none" fill="#042606" fill-rule="evenodd"></path></g></svg>