<svg id="svg" version="1.1" xmlns="http://www.w3.org/2000/svg" xmlns:xlink="http://www.w3.org/1999/xlink" width="400" height="400" viewBox="0, 0, 400,400"><g id="svgg"><path id="path0" d="M45.812 42.886 C 45.717 43.169,45.585 43.850,45.520 44.400 C 45.423 45.206,45.129 45.439,44.000 45.600 C 42.781 45.774,42.584 45.959,42.480 47.034 C 42.377 48.089,42.144 48.322,40.880 48.634 C 39.594 48.952,39.384 49.171,39.275 50.300 C 39.179 51.292,38.960 51.600,38.348 51.600 C 36.887 51.600,36.000 52.361,36.000 53.614 C 36.000 54.662,35.862 54.800,34.814 54.800 C 33.553 54.800,32.800 55.688,32.800 57.174 C 32.800 57.827,32.546 58.000,31.587 58.000 C 30.364 58.000,30.258 58.126,29.832 60.075 C 29.644 60.934,29.338 61.175,28.299 61.275 C 27.165 61.384,26.984 61.561,26.877 62.666 C 26.771 63.760,26.554 63.978,25.277 64.278 C 23.994 64.580,23.784 64.794,23.675 65.913 C 23.579 66.892,23.358 67.200,22.748 67.200 C 21.287 67.200,20.400 67.961,20.400 69.214 C 20.400 70.262,20.262 70.400,19.214 70.400 C 17.961 70.400,17.200 71.287,17.200 72.748 C 17.200 73.358,16.892 73.579,15.913 73.675 C 14.790 73.784,14.580 73.992,14.273 75.300 C 13.998 76.472,13.728 76.800,13.040 76.800 C 10.426 76.800,10.389 81.981,13.000 82.461 C 13.598 82.571,13.851 83.012,14.000 84.204 C 14.189 85.713,14.281 85.807,15.677 85.923 C 17.065 86.038,17.162 86.135,17.277 87.523 C 17.393 88.915,17.486 89.007,18.900 89.124 C 20.319 89.242,20.400 89.323,20.400 90.624 C 20.400 91.963,20.443 92.000,22.000 92.000 L 23.600 92.000 23.600 93.600 C 23.600 95.150,23.642 95.200,24.949 95.200 C 26.213 95.200,26.314 95.300,26.554 96.800 C 26.794 98.306,26.890 98.400,28.181 98.400 C 29.476 98.400,29.559 98.483,29.676 99.900 C 29.793 101.314,29.885 101.407,31.277 101.523 C 32.665 101.638,32.762 101.735,32.877 103.123 C 32.993 104.511,33.089 104.607,34.477 104.723 C 35.865 104.838,35.962 104.935,36.077 106.323 C 36.193 107.715,36.286 107.807,37.700 107.924 C 39.119 108.042,39.200 108.123,39.200 109.424 C 39.200 110.763,39.243 110.800,40.800 110.800 L 42.400 110.800 42.400 112.400 C 42.400 113.962,42.433 114.000,43.800 114.000 C 45.014 114.000,45.200 114.128,45.200 114.967 C 45.200 116.696,45.611 117.200,47.019 117.200 C 48.270 117.200,48.359 117.292,48.476 118.700 C 48.593 120.114,48.685 120.207,50.077 120.323 C 51.465 120.438,51.562 120.535,51.677 121.923 C 51.793 123.315,51.886 123.407,53.300 123.524 C 54.719 123.642,54.800 123.723,54.800 125.024 C 54.800 126.363,54.843 126.400,56.400 126.400 L 58.000 126.400 58.000 128.000 C 58.000 129.562,58.033 129.600,59.400 129.600 C 60.614 129.600,60.800 129.728,60.800 130.567 C 60.800 132.296,61.211 132.800,62.619 132.800 C 63.870 132.800,63.959 132.892,64.076 134.300 C 64.193 135.714,64.285 135.807,65.677 135.923 C 67.065 136.038,67.162 136.135,67.277 137.523 C 67.393 138.915,67.486 139.007,68.900 139.124 C 70.319 139.242,70.400 139.323,70.400 140.624 C 70.400 141.963,70.443 142.000,72.000 142.000 L 73.600 142.000 73.600 143.600 C 73.600 145.150,73.642 145.200,74.949 145.200 C 76.213 145.200,76.314 145.300,76.554 146.800 C 76.794 148.306,76.890 148.400,78.181 148.400 C 79.476 148.400,79.559 148.483,79.676 149.900 C 79.793 151.314,79.885 151.407,81.277 151.523 C 82.665 151.638,82.762 151.735,82.877 153.123 C 82.993 154.511,83.089 154.607,84.477 154.723 C 85.865 154.838,85.962 154.935,86.077 156.323 C 86.193 157.715,86.286 157.807,87.700 157.924 C 89.119 158.042,89.200 158.123,89.200 159.424 C 89.200 160.763,89.243 160.800,90.800 160.800 L 92.400 160.800 92.400 162.400 C 92.400 163.962,92.433 164.000,93.800 164.000 C 95.014 164.000,95.200 164.128,95.200 164.967 C 95.200 166.696,95.611 167.200,97.019 167.200 C 98.270 167.200,98.359 167.292,98.476 168.700 C 98.593 170.114,98.685 170.207,100.077 170.323 C 101.465 170.438,101.562 170.535,101.677 171.923 C 101.793 173.315,101.886 173.407,103.300 173.524 C 104.719 173.642,104.800 173.723,104.800 175.024 C 104.800 176.363,104.843 176.400,106.400 176.400 L 108.000 176.400 108.000 178.000 L 108.000 179.600 106.400 179.600 L 104.800 179.600 104.800 181.200 L 104.800 182.800 103.200 182.800 L 101.600 182.800 101.600 184.400 L 101.600 186.000 100.000 186.000 L 98.400 186.000 98.400 187.600 L 98.400 189.200 96.800 189.200 C 95.248 189.200,95.200 189.240,95.200 190.557 C 95.200 191.944,94.697 192.400,93.167 192.400 C 92.678 192.400,92.400 192.678,92.400 193.167 C 92.400 194.697,91.944 195.200,90.557 195.200 C 89.240 195.200,89.200 195.248,89.200 196.800 L 89.200 198.400 87.600 198.400 L 86.000 198.400 86.000 200.000 L 86.000 201.600 84.400 201.600 L 82.800 201.600 82.800 203.200 L 82.800 204.800 81.200 204.800 C 79.604 204.800,79.600 204.804,79.600 206.376 C 79.600 207.908,79.558 207.955,78.100 208.076 C 76.737 208.189,76.589 208.316,76.476 209.476 C 76.369 210.588,76.188 210.769,75.076 210.876 C 73.916 210.989,73.789 211.137,73.676 212.500 C 73.555 213.958,73.508 214.000,71.976 214.000 C 70.404 214.000,70.400 214.004,70.400 215.600 L 70.400 217.200 68.800 217.200 L 67.200 217.200 67.200 218.800 L 67.200 220.400 65.600 220.400 C 64.004 220.400,64.000 220.404,64.000 221.976 C 64.000 223.508,63.958 223.555,62.500 223.676 C 61.137 223.789,60.989 223.916,60.876 225.076 C 60.769 226.188,60.588 226.369,59.476 226.476 C 58.316 226.589,58.189 226.737,58.076 228.100 C 57.955 229.558,57.908 229.600,56.376 229.600 C 54.804 229.600,54.800 229.604,54.800 231.200 L 54.800 232.800 53.200 232.800 L 51.600 232.800 51.600 234.400 L 51.600 236.000 50.000 236.000 L 48.400 236.000 48.400 237.600 L 48.400 239.200 46.800 239.200 C 45.248 239.200,45.200 239.240,45.200 240.557 C 45.200 241.944,44.697 242.400,43.167 242.400 C 42.678 242.400,42.400 242.678,42.400 243.167 C 42.400 244.697,41.944 245.200,40.557 245.200 C 39.240 245.200,39.200 245.248,39.200 246.800 L 39.200 248.400 37.600 248.400 L 36.000 248.400 36.000 250.000 L 36.000 251.600 34.400 251.600 L 32.800 251.600 32.800 253.200 L 32.800 254.800 31.200 254.800 C 29.604 254.800,29.600 254.804,29.600 256.376 C 29.600 257.908,29.558 257.955,28.100 258.076 C 26.737 258.189,26.589 258.316,26.476 259.476 C 26.369 260.588,26.188 260.769,25.076 260.876 C 23.916 260.989,23.789 261.137,23.676 262.500 C 23.555 263.958,23.508 264.000,21.976 264.000 C 20.404 264.000,20.400 264.004,20.400 265.600 L 20.400 267.200 18.800 267.200 L 17.200 267.200 17.200 268.800 L 17.200 270.400 15.600 270.400 C 14.004 270.400,14.000 270.404,14.000 271.976 C 14.000 273.508,13.958 273.555,12.500 273.676 C 11.137 273.789,10.989 273.916,10.876 275.076 C 10.769 276.188,10.588 276.369,9.476 276.476 C 8.316 276.589,8.189 276.737,8.076 278.100 C 7.955 279.558,7.908 279.600,6.376 279.600 C 4.804 279.600,4.800 279.604,4.800 281.200 L 4.800 282.800 3.200 282.800 L 1.600 282.800 1.600 284.400 C 1.600 285.733,1.467 286.000,0.800 286.000 C 0.007 286.000,0.000 286.267,0.000 318.800 L 0.000 351.600 200.000 351.600 L 400.000 351.600 400.000 320.400 C 400.000 289.467,399.993 289.200,399.200 289.200 C 398.533 289.200,398.400 288.933,398.400 287.600 L 398.400 286.000 396.800 286.000 L 395.200 286.000 395.200 284.400 L 395.200 282.800 393.600 282.800 L 392.000 282.800 392.000 281.200 C 392.000 279.638,391.967 279.600,390.600 279.600 C 389.268 279.600,389.200 279.533,389.200 278.205 C 389.200 276.886,389.112 276.795,387.600 276.554 C 386.100 276.314,386.000 276.213,386.000 274.949 C 386.000 273.642,385.950 273.600,384.400 273.600 L 382.800 273.600 382.800 272.000 L 382.800 270.400 381.200 270.400 L 379.600 270.400 379.600 268.800 L 379.600 267.200 378.000 267.200 L 376.400 267.200 376.400 265.600 C 376.400 264.038,376.367 264.000,375.000 264.000 C 373.675 264.000,373.600 263.927,373.600 262.643 C 373.600 261.209,373.104 260.800,371.367 260.800 C 370.527 260.800,370.400 260.615,370.400 259.387 L 370.400 257.975 365.700 258.087 L 361.000 258.200 360.876 259.476 C 360.769 260.588,360.588 260.769,359.476 260.876 C 358.316 260.989,358.189 261.137,358.076 262.500 C 357.955 263.958,357.908 264.000,356.376 264.000 C 354.804 264.000,354.800 264.004,354.800 265.600 L 354.800 267.200 353.200 267.200 L 351.600 267.200 351.600 268.800 L 351.600 270.400 350.000 270.400 L 348.400 270.400 348.400 272.000 L 348.400 273.600 346.800 273.600 C 345.238 273.600,345.200 273.633,345.200 275.000 C 345.200 276.292,345.107 276.400,343.987 276.400 C 342.761 276.400,342.659 276.522,342.226 278.500 C 342.019 279.443,341.786 279.600,340.592 279.600 C 339.235 279.600,339.200 279.640,339.200 281.200 L 339.200 282.800 337.600 282.800 L 336.000 282.800 336.000 284.400 L 336.000 286.000 334.400 286.000 L 332.800 286.000 332.800 287.600 L 332.800 289.200 324.889 289.200 L 316.979 289.200 317.131 287.600 C 317.276 286.089,317.357 286.000,318.599 286.000 C 319.983 286.000,320.400 285.489,320.400 283.791 C 320.400 282.990,320.626 282.830,321.900 282.724 C 323.319 282.607,323.407 282.519,323.524 281.100 C 323.642 279.681,323.723 279.600,325.024 279.600 C 326.363 279.600,326.400 279.557,326.400 278.000 L 326.400 276.400 328.000 276.400 C 329.557 276.400,329.600 276.363,329.600 275.024 C 329.600 273.723,329.681 273.642,331.100 273.524 C 332.519 273.407,332.607 273.319,332.724 271.900 C 332.830 270.626,332.990 270.400,333.791 270.400 C 335.495 270.400,336.000 269.984,336.000 268.581 C 336.000 267.330,336.092 267.241,337.500 267.124 C 338.919 267.007,339.007 266.919,339.124 265.500 C 339.242 264.081,339.323 264.000,340.624 264.000 C 341.963 264.000,342.000 263.957,342.000 262.400 L 342.000 260.800 343.600 260.800 C 345.157 260.800,345.200 260.763,345.200 259.424 C 345.200 258.123,345.281 258.042,346.700 257.924 C 348.119 257.807,348.207 257.719,348.324 256.300 C 348.430 255.026,348.590 254.800,349.391 254.800 C 351.103 254.800,351.600 254.386,351.600 252.957 C 351.600 251.681,351.681 251.600,352.957 251.600 C 354.386 251.600,354.800 251.103,354.800 249.391 C 354.800 248.590,355.026 248.430,356.300 248.324 C 357.719 248.207,357.807 248.119,357.924 246.700 C 358.042 245.281,358.123 245.200,359.424 245.200 C 360.763 245.200,360.800 245.157,360.800 243.600 L 360.800 242.000 362.400 242.000 C 363.957 242.000,364.000 241.963,364.000 240.624 C 364.000 239.323,364.081 239.242,365.500 239.124 C 366.919 239.007,367.007 238.919,367.124 237.500 C 367.235 236.162,367.367 236.000,368.344 236.000 C 370.103 236.000,370.400 235.358,370.400 231.553 C 370.400 227.168,370.259 226.800,368.581 226.800 C 367.330 226.800,367.241 226.708,367.124 225.300 C 367.007 223.886,366.915 223.793,365.523 223.677 C 364.135 223.562,364.038 223.465,363.923 222.077 C 363.807 220.689,363.711 220.593,362.323 220.477 C 360.935 220.362,360.838 220.265,360.723 218.877 C 360.612 217.544,360.477 217.388,359.340 217.278 C 358.264 217.173,358.044 216.961,357.829 215.816 C 357.579 214.484,356.989 214.000,355.612 214.000 C 355.107 214.000,354.812 213.591,354.634 212.643 C 354.418 211.487,354.176 211.247,353.014 211.029 C 351.834 210.808,351.632 210.599,351.524 209.486 C 351.412 208.319,351.263 208.189,349.923 208.077 C 348.535 207.962,348.438 207.865,348.323 206.477 C 348.207 205.089,348.111 204.993,346.723 204.877 C 345.335 204.762,345.238 204.665,345.123 203.277 C 345.007 201.889,344.911 201.793,343.523 201.677 C 342.135 201.562,342.038 201.465,341.923 200.077 C 341.812 198.744,341.677 198.588,340.540 198.478 C 339.459 198.373,339.244 198.163,339.025 196.993 C 338.806 195.828,338.569 195.593,337.385 195.371 C 336.412 195.188,336.000 194.896,336.000 194.388 C 336.000 192.912,335.531 192.400,334.181 192.400 C 332.930 192.400,332.841 192.308,332.724 190.900 L 332.600 189.400 328.100 189.287 L 323.600 189.174 323.600 190.787 L 323.600 192.400 322.000 192.400 C 320.438 192.400,320.400 192.433,320.400 193.800 C 320.400 195.014,320.272 195.200,319.433 195.200 C 317.704 195.200,317.200 195.611,317.200 197.019 C 317.200 198.270,317.108 198.359,315.700 198.476 C 314.281 198.593,314.193 198.681,314.076 200.100 C 313.959 201.508,313.870 201.600,312.619 201.600 C 311.211 201.600,310.800 202.104,310.800 203.833 C 310.800 204.672,310.614 204.800,309.400 204.800 C 308.033 204.800,308.000 204.838,308.000 206.400 L 308.000 208.000 306.400 208.000 C 304.838 208.000,304.800 208.033,304.800 209.400 C 304.800 210.614,304.672 210.800,303.833 210.800 C 302.104 210.800,301.600 211.211,301.600 212.619 C 301.600 213.870,301.508 213.959,300.100 214.076 C 298.681 214.193,298.593 214.281,298.476 215.700 C 298.359 217.108,298.270 217.200,297.019 217.200 C 295.611 217.200,295.200 217.704,295.200 219.433 C 295.200 220.272,295.014 220.400,293.800 220.400 C 292.433 220.400,292.400 220.438,292.400 222.000 L 292.400 223.600 290.800 223.600 C 289.246 223.600,289.200 223.639,289.200 224.965 C 289.200 226.245,289.101 226.346,287.600 226.600 C 286.105 226.853,286.000 226.959,286.000 228.211 C 286.000 229.472,285.910 229.559,284.500 229.676 C 283.086 229.793,282.993 229.885,282.877 231.277 C 282.762 232.665,282.665 232.762,281.277 232.877 C 279.885 232.993,279.793 233.086,279.676 234.500 C 279.559 235.910,279.472 236.000,278.211 236.000 C 276.959 236.000,276.853 236.105,276.600 237.600 C 276.346 239.101,276.245 239.200,274.965 239.200 C 273.639 239.200,273.600 239.246,273.600 240.800 L 273.600 242.400 272.000 242.400 C 270.438 242.400,270.400 242.433,270.400 243.800 C 270.400 245.014,270.272 245.200,269.433 245.200 C 267.704 245.200,267.200 245.611,267.200 247.019 C 267.200 248.270,267.108 248.359,265.700 248.476 C 264.281 248.593,264.193 248.681,264.076 250.100 C 263.959 251.508,263.870 251.600,262.619 251.600 C 261.211 251.600,260.800 252.104,260.800 253.833 C 260.800 254.672,260.614 254.800,259.400 254.800 C 258.033 254.800,258.000 254.838,258.000 256.400 L 258.000 258.000 256.400 258.000 C 254.838 258.000,254.800 258.033,254.800 259.400 C 254.800 260.614,254.672 260.800,253.833 260.800 C 252.104 260.800,251.600 261.211,251.600 262.619 C 251.600 263.870,251.508 263.959,250.100 264.076 C 248.681 264.193,248.593 264.281,248.476 265.700 C 248.359 267.108,248.270 267.200,247.019 267.200 C 245.611 267.200,245.200 267.704,245.200 269.433 C 245.200 270.272,245.014 270.400,243.800 270.400 C 242.433 270.400,242.400 270.438,242.400 272.000 L 242.400 273.600 240.800 273.600 C 239.246 273.600,239.200 273.639,239.200 274.965 C 239.200 276.245,239.101 276.346,237.600 276.600 C 236.105 276.853,236.000 276.959,236.000 278.211 C 236.000 279.472,235.910 279.559,234.500 279.676 C 233.086 279.793,232.993 279.885,232.877 281.277 C 232.762 282.665,232.665 282.762,231.277 282.877 C 229.885 282.993,229.793 283.086,229.676 284.500 C 229.559 285.910,229.472 286.000,228.211 286.000 C 226.959 286.000,226.853 286.105,226.600 287.600 L 226.330 289.200 212.365 289.200 L 198.400 289.200 198.400 287.624 C 198.400 286.092,198.442 286.045,199.900 285.924 C 201.319 285.807,201.407 285.719,201.524 284.300 C 201.645 282.842,201.692 282.800,203.224 282.800 C 204.796 282.800,204.800 282.796,204.800 281.200 L 204.800 279.600 206.400 279.600 L 208.000 279.600 208.000 278.000 C 208.000 276.438,208.033 276.400,209.400 276.400 C 210.733 276.400,210.800 276.333,210.800 275.000 C 210.800 273.633,210.838 273.600,212.400 273.600 C 213.996 273.600,214.000 273.596,214.000 272.024 C 214.000 270.492,214.042 270.445,215.500 270.324 C 216.914 270.207,217.007 270.115,217.123 268.723 C 217.238 267.335,217.335 267.238,218.723 267.123 C 220.115 267.007,220.207 266.914,220.324 265.500 C 220.445 264.042,220.492 264.000,222.024 264.000 C 223.596 264.000,223.600 263.996,223.600 262.400 C 223.600 260.838,223.633 260.800,225.000 260.800 C 226.333 260.800,226.400 260.733,226.400 259.400 C 226.400 258.033,226.438 258.000,228.000 258.000 L 229.600 258.000 229.600 256.400 L 229.600 254.800 231.200 254.800 C 232.796 254.800,232.800 254.796,232.800 253.224 C 232.800 251.692,232.842 251.645,234.300 251.524 C 235.719 251.407,235.807 251.319,235.924 249.900 C 236.045 248.442,236.092 248.400,237.624 248.400 C 239.196 248.400,239.200 248.396,239.200 246.800 C 239.200 245.238,239.233 245.200,240.600 245.200 C 241.967 245.200,242.000 245.162,242.000 243.600 L 242.000 242.000 243.600 242.000 C 245.162 242.000,245.200 241.967,245.200 240.600 C 245.200 239.233,245.238 239.200,246.800 239.200 C 248.396 239.200,248.400 239.196,248.400 237.624 C 248.400 236.092,248.442 236.045,249.900 235.924 C 251.319 235.807,251.407 235.719,251.524 234.300 C 251.645 232.842,251.692 232.800,253.224 232.800 C 254.796 232.800,254.800 232.796,254.800 231.200 L 254.800 229.600 256.400 229.600 L 258.000 229.600 258.000 228.000 C 258.000 226.438,258.033 226.400,259.400 226.400 C 260.733 226.400,260.800 226.333,260.800 225.000 C 260.800 223.633,260.838 223.600,262.400 223.600 C 263.996 223.600,264.000 223.596,264.000 222.024 C 264.000 220.492,264.042 220.445,265.500 220.324 C 266.914 220.207,267.007 220.115,267.123 218.723 C 267.238 217.335,267.335 217.238,268.723 217.123 C 270.115 217.007,270.207 216.914,270.324 215.500 C 270.445 214.042,270.492 214.000,272.024 214.000 C 273.596 214.000,273.600 213.996,273.600 212.400 C 273.600 210.838,273.633 210.800,275.000 210.800 C 276.333 210.800,276.400 210.733,276.400 209.400 C 276.400 208.033,276.438 208.000,278.000 208.000 L 279.600 208.000 279.600 206.400 L 279.600 204.800 281.200 204.800 C 282.796 204.800,282.800 204.796,282.800 203.224 C 282.800 201.692,282.842 201.645,284.300 201.524 C 285.719 201.407,285.807 201.319,285.924 199.900 C 286.045 198.442,286.092 198.400,287.624 198.400 C 289.196 198.400,289.200 198.396,289.200 196.800 C 289.200 195.238,289.233 195.200,290.600 195.200 C 291.967 195.200,292.000 195.162,292.000 193.600 L 292.000 192.000 293.600 192.000 C 295.162 192.000,295.200 191.967,295.200 190.600 C 295.200 189.233,295.238 189.200,296.800 189.200 C 298.396 189.200,298.400 189.196,298.400 187.624 C 298.400 186.092,298.442 186.045,299.900 185.924 C 301.319 185.807,301.407 185.719,301.524 184.300 C 301.645 182.842,301.692 182.800,303.224 182.800 C 304.796 182.800,304.800 182.796,304.800 181.200 L 304.800 179.600 306.400 179.600 L 308.000 179.600 308.000 178.000 C 308.000 176.438,308.033 176.400,309.400 176.400 C 310.733 176.400,310.800 176.333,310.800 175.000 C 310.800 173.633,310.838 173.600,312.400 173.600 C 313.996 173.600,314.000 173.596,314.000 172.024 C 314.000 170.492,314.042 170.445,315.500 170.324 C 316.914 170.207,317.007 170.115,317.123 168.723 C 317.238 167.335,317.335 167.238,318.723 167.123 C 320.111 167.007,320.207 166.911,320.323 165.523 C 320.438 164.135,320.535 164.038,321.923 163.923 L 323.400 163.800 323.400 161.000 L 323.400 158.200 321.923 158.077 C 320.535 157.962,320.438 157.865,320.323 156.477 C 320.207 155.085,320.114 154.993,318.700 154.876 C 317.242 154.755,317.200 154.708,317.200 153.176 C 317.200 151.604,317.196 151.600,315.600 151.600 L 314.000 151.600 314.000 150.000 C 314.000 148.404,313.996 148.400,312.424 148.400 C 310.892 148.400,310.845 148.358,310.724 146.900 C 310.611 145.537,310.484 145.389,309.324 145.276 C 308.212 145.169,308.031 144.988,307.924 143.876 C 307.812 142.720,307.661 142.588,306.323 142.477 C 304.935 142.362,304.838 142.265,304.723 140.877 C 304.607 139.485,304.514 139.393,303.100 139.276 C 301.642 139.155,301.600 139.108,301.600 137.576 C 301.600 136.004,301.596 136.000,300.000 136.000 L 298.400 136.000 298.400 134.400 C 298.400 132.804,298.396 132.800,296.824 132.800 C 295.292 132.800,295.245 132.758,295.124 131.300 C 295.007 129.881,294.919 129.793,293.500 129.676 C 292.092 129.559,292.000 129.470,292.000 128.219 C 292.000 126.864,291.488 126.400,289.993 126.400 C 289.448 126.400,289.217 126.054,289.125 125.100 C 289.011 123.917,288.867 123.789,287.523 123.677 C 286.135 123.562,286.038 123.465,285.923 122.077 L 285.800 120.600 281.432 120.486 C 276.710 120.362,276.417 120.480,276.406 122.500 C 276.401 123.489,276.259 123.600,275.000 123.600 C 273.667 123.600,273.600 123.667,273.600 125.000 C 273.600 126.214,273.472 126.400,272.633 126.400 C 270.904 126.400,270.400 126.811,270.400 128.219 C 270.400 129.470,270.308 129.559,268.900 129.676 C 267.486 129.793,267.393 129.885,267.277 131.277 C 267.162 132.665,267.065 132.762,265.677 132.877 C 264.289 132.993,264.193 133.089,264.077 134.477 C 263.962 135.865,263.865 135.962,262.477 136.077 C 261.085 136.193,260.993 136.286,260.876 137.700 C 260.758 139.119,260.677 139.200,259.376 139.200 C 258.078 139.200,258.000 139.277,258.000 140.557 C 258.000 141.991,257.504 142.400,255.767 142.400 C 254.932 142.400,254.800 142.587,254.800 143.776 C 254.800 145.077,254.719 145.158,253.300 145.276 C 251.886 145.393,251.793 145.485,251.677 146.877 C 251.562 148.265,251.465 148.362,250.077 148.477 C 248.689 148.593,248.593 148.689,248.477 150.077 C 248.362 151.465,248.265 151.562,246.877 151.677 C 245.485 151.793,245.393 151.886,245.276 153.300 C 245.158 154.719,245.077 154.800,243.776 154.800 C 242.587 154.800,242.400 154.932,242.400 155.767 C 242.400 157.504,241.991 158.000,240.557 158.000 C 239.277 158.000,239.200 158.078,239.200 159.376 C 239.200 160.677,239.119 160.758,237.700 160.876 C 236.286 160.993,236.193 161.085,236.077 162.477 C 235.962 163.865,235.865 163.962,234.477 164.077 C 233.089 164.193,232.993 164.289,232.877 165.677 C 232.762 167.065,232.665 167.162,231.277 167.277 C 229.885 167.393,229.793 167.486,229.676 168.900 C 229.559 170.308,229.470 170.400,228.219 170.400 C 226.811 170.400,226.400 170.904,226.400 172.633 C 226.400 173.472,226.214 173.600,225.000 173.600 C 223.667 173.600,223.600 173.667,223.600 175.000 C 223.600 176.214,223.472 176.400,222.633 176.400 C 220.904 176.400,220.400 176.811,220.400 178.219 C 220.400 179.470,220.308 179.559,218.900 179.676 C 217.486 179.793,217.393 179.885,217.277 181.277 C 217.162 182.665,217.065 182.762,215.677 182.877 C 214.289 182.993,214.193 183.089,214.077 184.477 C 213.962 185.865,213.865 185.962,212.477 186.077 C 211.085 186.193,210.993 186.286,210.876 187.700 C 210.758 189.119,210.677 189.200,209.376 189.200 C 208.078 189.200,208.000 189.277,208.000 190.557 C 208.000 191.991,207.504 192.400,205.767 192.400 C 204.932 192.400,204.800 192.587,204.800 193.776 C 204.800 195.077,204.719 195.158,203.300 195.276 C 201.886 195.393,201.793 195.485,201.677 196.877 C 201.562 198.265,201.465 198.362,200.077 198.477 C 198.689 198.593,198.593 198.689,198.477 200.077 C 198.362 201.465,198.265 201.562,196.877 201.677 C 195.485 201.793,195.393 201.886,195.276 203.300 C 195.158 204.719,195.077 204.800,193.776 204.800 C 192.587 204.800,192.400 204.932,192.400 205.767 C 192.400 207.504,191.991 208.000,190.557 208.000 C 189.277 208.000,189.200 208.078,189.200 209.376 C 189.200 210.677,189.119 210.758,187.700 210.876 C 186.286 210.993,186.193 211.085,186.077 212.477 C 185.962 213.865,185.865 213.962,184.477 214.077 C 183.089 214.193,182.993 214.289,182.877 215.677 C 182.762 217.065,182.665 217.162,181.277 217.277 C 179.885 217.393,179.793 217.486,179.676 218.900 C 179.559 220.308,179.470 220.400,178.219 220.400 C 176.811 220.400,176.400 220.904,176.400 222.633 C 176.400 223.472,176.214 223.600,175.000 223.600 C 173.667 223.600,173.600 223.667,173.600 225.000 C 173.600 226.214,173.472 226.400,172.633 226.400 C 170.904 226.400,170.400 226.811,170.400 228.219 C 170.400 229.470,170.308 229.559,168.900 229.676 C 167.486 229.793,167.393 229.885,167.277 231.277 C 167.162 232.665,167.065 232.762,165.677 232.877 C 164.289 232.993,164.193 233.089,164.077 234.477 C 163.962 235.865,163.865 235.962,162.477 236.077 C 161.085 236.193,160.993 236.286,160.876 237.700 C 160.758 239.119,160.677 239.200,159.376 239.200 C 158.078 239.200,158.000 239.277,158.000 240.557 C 158.000 241.991,157.504 242.400,155.767 242.400 C 154.932 242.400,154.800 242.587,154.800 243.776 C 154.800 245.077,154.719 245.158,153.300 245.276 C 151.886 245.393,151.793 245.485,151.677 246.877 C 151.562 248.265,151.465 248.362,150.077 248.477 C 148.689 248.593,148.593 248.689,148.477 250.077 C 148.362 251.465,148.265 251.562,146.877 251.677 C 145.485 251.793,145.393 251.886,145.276 253.300 C 145.158 254.719,145.077 254.800,143.776 254.800 C 142.587 254.800,142.400 254.932,142.400 255.767 C 142.400 257.504,141.991 258.000,140.557 258.000 C 139.277 258.000,139.200 258.078,139.200 259.376 C 139.200 260.677,139.119 260.758,137.700 260.876 C 136.286 260.993,136.193 261.085,136.077 262.477 C 135.962 263.865,135.865 263.962,134.477 264.077 C 133.089 264.193,132.993 264.289,132.877 265.677 C 132.762 267.065,132.665 267.162,131.277 267.277 C 129.885 267.393,129.793 267.486,129.676 268.900 C 129.559 270.308,129.470 270.400,128.219 270.400 C 126.811 270.400,126.400 270.904,126.400 272.633 C 126.400 273.472,126.214 273.600,125.000 273.600 C 123.667 273.600,123.600 273.667,123.600 275.000 C 123.600 276.214,123.472 276.400,122.633 276.400 C 120.904 276.400,120.400 276.811,120.400 278.219 C 120.400 279.470,120.308 279.559,118.900 279.676 C 117.486 279.793,117.393 279.885,117.277 281.277 C 117.162 282.665,117.065 282.762,115.677 282.877 C 114.289 282.993,114.193 283.089,114.077 284.477 C 113.962 285.865,113.865 285.962,112.477 286.077 C 111.085 286.193,110.993 286.286,110.876 287.700 L 110.752 289.200 98.265 289.200 L 85.779 289.200 85.929 287.622 C 86.072 286.127,86.157 286.037,87.540 285.922 C 88.913 285.807,89.007 285.710,89.124 284.300 C 89.242 282.881,89.323 282.800,90.624 282.800 C 91.963 282.800,92.000 282.757,92.000 281.200 L 92.000 279.600 93.600 279.600 L 95.200 279.600 95.200 278.000 L 95.200 276.400 96.800 276.400 C 98.357 276.400,98.400 276.363,98.400 275.024 C 98.400 273.723,98.481 273.642,99.900 273.524 C 101.314 273.407,101.407 273.315,101.523 271.923 C 101.638 270.535,101.735 270.438,103.123 270.323 C 104.511 270.207,104.607 270.111,104.723 268.723 C 104.838 267.335,104.935 267.238,106.323 267.123 C 107.715 267.007,107.807 266.914,107.924 265.500 C 108.042 264.081,108.123 264.000,109.424 264.000 C 110.763 264.000,110.800 263.957,110.800 262.400 L 110.800 260.800 112.400 260.800 C 113.957 260.800,114.000 260.763,114.000 259.424 C 114.000 258.123,114.081 258.042,115.500 257.924 C 116.914 257.807,117.007 257.715,117.123 256.323 C 117.238 254.935,117.335 254.838,118.723 254.723 C 120.111 254.607,120.207 254.511,120.323 253.123 C 120.438 251.735,120.535 251.638,121.923 251.523 C 123.315 251.407,123.407 251.314,123.524 249.900 C 123.642 248.481,123.723 248.400,125.024 248.400 C 126.363 248.400,126.400 248.357,126.400 246.800 L 126.400 245.200 128.000 245.200 L 129.600 245.200 129.600 243.600 L 129.600 242.000 131.200 242.000 C 132.757 242.000,132.800 241.963,132.800 240.624 C 132.800 239.323,132.881 239.242,134.300 239.124 C 135.714 239.007,135.807 238.915,135.923 237.523 C 136.038 236.135,136.135 236.038,137.523 235.923 C 138.915 235.807,139.007 235.714,139.124 234.300 C 139.242 232.881,139.323 232.800,140.624 232.800 C 141.963 232.800,142.000 232.757,142.000 231.200 L 142.000 229.600 143.600 229.600 L 145.200 229.600 145.200 228.000 L 145.200 226.400 146.800 226.400 C 148.357 226.400,148.400 226.363,148.400 225.024 C 148.400 223.723,148.481 223.642,149.900 223.524 C 151.314 223.407,151.407 223.315,151.523 221.923 C 151.638 220.535,151.735 220.438,153.123 220.323 C 154.511 220.207,154.607 220.111,154.723 218.723 C 154.838 217.335,154.935 217.238,156.323 217.123 C 157.715 217.007,157.807 216.914,157.924 215.500 C 158.042 214.081,158.123 214.000,159.424 214.000 C 160.763 214.000,160.800 213.957,160.800 212.400 L 160.800 210.800 162.400 210.800 C 163.957 210.800,164.000 210.763,164.000 209.424 C 164.000 208.123,164.081 208.042,165.500 207.924 C 166.914 207.807,167.007 207.715,167.123 206.323 C 167.238 204.935,167.335 204.838,168.723 204.723 C 170.111 204.607,170.207 204.511,170.323 203.123 C 170.438 201.735,170.535 201.638,171.923 201.523 C 173.315 201.407,173.407 201.314,173.524 199.900 C 173.642 198.481,173.723 198.400,175.024 198.400 C 176.363 198.400,176.400 198.357,176.400 196.800 L 176.400 195.200 178.000 195.200 L 179.600 195.200 179.600 193.600 L 179.600 192.000 181.200 192.000 C 182.757 192.000,182.800 191.963,182.800 190.624 C 182.800 189.323,182.881 189.242,184.300 189.124 C 185.714 189.007,185.807 188.915,185.923 187.523 C 186.038 186.135,186.135 186.038,187.523 185.923 C 188.915 185.807,189.007 185.714,189.124 184.300 C 189.242 182.881,189.323 182.800,190.624 182.800 C 191.963 182.800,192.000 182.757,192.000 181.200 L 192.000 179.600 193.600 179.600 L 195.200 179.600 195.200 178.000 L 195.200 176.400 196.800 176.400 C 198.357 176.400,198.400 176.363,198.400 175.024 C 198.400 173.723,198.481 173.642,199.900 173.524 C 201.314 173.407,201.407 173.315,201.523 171.923 C 201.638 170.535,201.735 170.438,203.123 170.323 C 204.511 170.207,204.607 170.111,204.723 168.723 C 204.838 167.335,204.935 167.238,206.323 167.123 C 207.715 167.007,207.807 166.914,207.924 165.500 C 208.042 164.081,208.123 164.000,209.424 164.000 C 210.763 164.000,210.800 163.957,210.800 162.400 L 210.800 160.800 212.400 160.800 C 213.957 160.800,214.000 160.763,214.000 159.424 C 214.000 158.123,214.081 158.042,215.500 157.924 C 216.914 157.807,217.007 157.715,217.123 156.323 C 217.238 154.935,217.335 154.838,218.723 154.723 C 220.111 154.607,220.207 154.511,220.323 153.123 C 220.438 151.735,220.535 151.638,221.923 151.523 C 223.315 151.407,223.407 151.314,223.524 149.900 C 223.642 148.481,223.723 148.400,225.024 148.400 C 226.363 148.400,226.400 148.357,226.400 146.800 L 226.400 145.200 228.000 145.200 L 229.600 145.200 229.600 143.600 L 229.600 142.000 231.200 142.000 C 232.757 142.000,232.800 141.963,232.800 140.624 C 232.800 139.323,232.881 139.242,234.300 139.124 C 235.714 139.007,235.807 138.915,235.923 137.523 C 236.038 136.135,236.135 136.038,237.523 135.923 C 238.915 135.807,239.007 135.714,239.124 134.300 C 239.242 132.881,239.323 132.800,240.624 132.800 C 241.963 132.800,242.000 132.757,242.000 131.200 L 242.000 129.600 243.600 129.600 L 245.200 129.600 245.200 128.000 L 245.200 126.400 246.800 126.400 C 248.357 126.400,248.400 126.363,248.400 125.024 C 248.400 123.723,248.481 123.642,249.900 123.524 C 251.314 123.407,251.407 123.315,251.523 121.923 C 251.638 120.535,251.735 120.438,253.123 120.323 C 254.511 120.207,254.607 120.111,254.723 118.723 C 254.838 117.335,254.935 117.238,256.323 117.123 C 257.715 117.007,257.807 116.914,257.924 115.500 C 258.042 114.081,258.123 114.000,259.424 114.000 C 260.763 114.000,260.800 113.957,260.800 112.400 L 260.800 110.800 262.400 110.800 C 263.957 110.800,264.000 110.763,264.000 109.424 C 264.000 108.123,264.081 108.042,265.500 107.924 C 266.914 107.807,267.007 107.715,267.123 106.323 C 267.238 104.935,267.335 104.838,268.723 104.723 C 270.111 104.607,270.207 104.511,270.323 103.123 C 270.438 101.735,270.535 101.638,271.923 101.523 C 273.315 101.407,273.407 101.314,273.524 99.900 C 273.642 98.481,273.723 98.400,275.024 98.400 C 276.363 98.400,276.400 98.357,276.400 96.800 L 276.400 95.200 278.000 95.200 L 279.600 95.200 279.600 93.600 L 279.600 92.000 281.213 92.000 L 282.826 92.000 282.713 87.500 L 282.600 83.000 281.123 82.877 C 279.735 82.762,279.638 82.665,279.523 81.277 C 279.407 79.885,279.314 79.793,277.900 79.676 C 276.486 79.559,276.400 79.474,276.400 78.194 C 276.400 76.963,276.271 76.812,275.022 76.578 C 273.836 76.355,273.628 76.144,273.522 75.060 C 273.412 73.923,273.256 73.788,271.923 73.677 C 270.535 73.562,270.438 73.465,270.323 72.077 C 270.207 70.689,270.111 70.593,268.723 70.477 C 267.335 70.362,267.238 70.265,267.123 68.877 C 267.007 67.489,266.911 67.393,265.523 67.277 C 264.135 67.162,264.038 67.065,263.923 65.677 C 263.807 64.285,263.714 64.193,262.300 64.076 C 260.892 63.959,260.800 63.870,260.800 62.619 C 260.800 61.264,260.288 60.800,258.793 60.800 C 258.248 60.800,258.017 60.454,257.925 59.500 C 257.811 58.317,257.667 58.189,256.323 58.077 C 254.935 57.962,254.838 57.865,254.723 56.477 C 254.607 55.089,254.511 54.993,253.123 54.877 C 251.735 54.762,251.638 54.665,251.523 53.277 C 251.407 51.889,251.311 51.793,249.923 51.677 C 248.535 51.562,248.438 51.465,248.323 50.077 C 248.207 48.685,248.114 48.593,246.700 48.476 C 245.293 48.359,245.200 48.270,245.200 47.023 C 245.200 45.549,244.600 45.215,241.933 45.205 C 239.677 45.197,239.200 45.518,239.200 47.043 C 239.200 48.360,239.152 48.400,237.600 48.400 L 236.000 48.400 236.000 50.000 L 236.000 51.600 234.400 51.600 L 232.800 51.600 232.800 53.200 L 232.800 54.800 231.200 54.800 C 229.604 54.800,229.600 54.804,229.600 56.376 C 229.600 57.908,229.558 57.955,228.100 58.076 C 226.737 58.189,226.589 58.316,226.476 59.476 C 226.369 60.588,226.188 60.769,225.076 60.876 C 223.916 60.989,223.789 61.137,223.676 62.500 C 223.555 63.958,223.508 64.000,221.976 64.000 C 220.404 64.000,220.400 64.004,220.400 65.600 L 220.400 67.200 218.800 67.200 L 217.200 67.200 217.200 68.800 L 217.200 70.400 215.600 70.400 C 214.004 70.400,214.000 70.404,214.000 71.976 C 214.000 73.508,213.958 73.555,212.500 73.676 C 211.137 73.789,210.989 73.916,210.876 75.076 C 210.769 76.188,210.588 76.369,209.476 76.476 C 208.316 76.589,208.189 76.737,208.076 78.100 C 207.955 79.558,207.908 79.600,206.376 79.600 C 204.804 79.600,204.800 79.604,204.800 81.200 L 204.800 82.800 203.200 82.800 L 201.600 82.800 201.600 84.400 L 201.600 86.000 200.000 86.000 L 198.400 86.000 198.400 87.600 L 198.400 89.200 196.800 89.200 C 195.248 89.200,195.200 89.240,195.200 90.557 C 195.200 91.944,194.697 92.400,193.167 92.400 C 192.678 92.400,192.400 92.678,192.400 93.167 C 192.400 94.697,191.944 95.200,190.557 95.200 C 189.240 95.200,189.200 95.248,189.200 96.800 L 189.200 98.400 187.600 98.400 L 186.000 98.400 186.000 100.000 L 186.000 101.600 184.400 101.600 L 182.800 101.600 182.800 103.200 L 182.800 104.800 181.200 104.800 C 179.604 104.800,179.600 104.804,179.600 106.376 C 179.600 107.908,179.558 107.955,178.100 108.076 C 176.737 108.189,176.589 108.316,176.476 109.476 C 176.369 110.588,176.188 110.769,175.076 110.876 C 173.916 110.989,173.789 111.137,173.676 112.500 C 173.555 113.958,173.508 114.000,171.976 114.000 C 170.404 114.000,170.400 114.004,170.400 115.600 L 170.400 117.200 168.800 117.200 L 167.200 117.200 167.200 118.800 L 167.200 120.400 165.600 120.400 C 164.004 120.400,164.000 120.404,164.000 121.976 C 164.000 123.508,163.958 123.555,162.500 123.676 C 161.137 123.789,160.989 123.916,160.876 125.076 C 160.769 126.188,160.588 126.369,159.476 126.476 C 158.316 126.589,158.189 126.737,158.076 128.100 C 157.955 129.558,157.908 129.600,156.376 129.600 C 154.804 129.600,154.800 129.604,154.800 131.200 L 154.800 132.800 153.200 132.800 L 151.600 132.800 151.600 134.400 L 151.600 136.000 148.400 136.000 L 145.200 136.000 145.200 134.400 C 145.200 132.804,145.196 132.800,143.624 132.800 C 142.092 132.800,142.045 132.758,141.924 131.300 C 141.811 129.937,141.684 129.789,140.524 129.676 C 139.412 129.569,139.231 129.388,139.124 128.276 C 139.017 127.174,138.799 126.950,137.520 126.634 C 136.256 126.322,136.023 126.089,135.920 125.034 C 135.812 123.922,135.651 123.788,134.300 123.676 C 132.842 123.555,132.800 123.508,132.800 121.976 C 132.800 120.404,132.796 120.400,131.200 120.400 L 129.600 120.400 129.600 118.800 C 129.600 117.204,129.596 117.200,128.024 117.200 C 126.492 117.200,126.445 117.158,126.324 115.700 C 126.211 114.331,126.087 114.189,124.900 114.075 C 123.761 113.965,123.600 113.806,123.600 112.789 C 123.600 111.562,122.700 110.800,121.252 110.800 C 120.640 110.800,120.421 110.492,120.325 109.500 C 120.211 108.313,120.069 108.189,118.700 108.076 C 117.242 107.955,117.200 107.908,117.200 106.376 C 117.200 104.804,117.196 104.800,115.600 104.800 L 114.000 104.800 114.000 103.200 L 114.000 101.600 112.400 101.600 L 110.800 101.600 110.800 100.000 C 110.800 98.438,110.767 98.400,109.400 98.400 C 108.133 98.400,108.000 98.293,108.000 97.280 C 108.000 95.866,107.342 95.200,105.945 95.200 C 105.003 95.200,104.833 95.019,104.725 93.900 C 104.611 92.713,104.469 92.589,103.100 92.476 C 101.642 92.355,101.600 92.308,101.600 90.776 C 101.600 89.204,101.596 89.200,100.000 89.200 L 98.400 89.200 98.400 87.600 L 98.400 86.000 96.800 86.000 L 95.200 86.000 95.200 84.400 C 95.200 82.804,95.196 82.800,93.624 82.800 C 92.092 82.800,92.045 82.758,91.924 81.300 C 91.811 79.937,91.684 79.789,90.524 79.676 C 89.412 79.569,89.231 79.388,89.124 78.276 C 89.017 77.174,88.799 76.950,87.520 76.634 C 86.256 76.322,86.023 76.089,85.920 75.034 C 85.812 73.922,85.651 73.788,84.300 73.676 C 82.842 73.555,82.800 73.508,82.800 71.976 C 82.800 70.404,82.796 70.400,81.200 70.400 L 79.600 70.400 79.600 68.800 C 79.600 67.204,79.596 67.200,78.024 67.200 C 76.492 67.200,76.445 67.158,76.324 65.700 C 76.211 64.331,76.087 64.189,74.900 64.075 C 73.761 63.965,73.600 63.806,73.600 62.789 C 73.600 61.562,72.700 60.800,71.252 60.800 C 70.640 60.800,70.421 60.492,70.325 59.500 C 70.211 58.313,70.069 58.189,68.700 58.076 C 67.242 57.955,67.200 57.908,67.200 56.376 C 67.200 54.804,67.196 54.800,65.600 54.800 L 64.000 54.800 64.000 53.200 L 64.000 51.600 62.400 51.600 L 60.800 51.600 60.800 50.000 C 60.800 48.438,60.767 48.400,59.400 48.400 C 58.133 48.400,58.000 48.293,58.000 47.280 C 58.000 45.866,57.342 45.200,55.945 45.200 C 55.003 45.200,54.833 45.019,54.725 43.900 L 54.600 42.600 50.293 42.486 C 47.061 42.401,45.942 42.501,45.812 42.886 " stroke="none" fill="#04fc04" fill-rule="evenodd"></path><path id="path1" d="" stroke="none" fill="#08fc04" fill-rule="evenodd"></path><path id="path2" d="" stroke="none" fill="#08fc04" fill-rule="evenodd"></path><path id="path3" d="" stroke="none" fill="#08fc04" fill-rule="evenodd"></path><path id="path4" d="" stroke="none" fill="#08fc04" fill-rule="evenodd"></path></g></svg>